<svg width="661" height="556" viewBox="0 0 661 556" preserveAspectRatio="none" fill="none" xmlns="http://www.w3.org/2000/svg">
<g id="background-img">
<path id="path18" d="M479.505 139.362C477.274 135.831 474.735 132.712 472.099 129.977C478.087 114.874 486.778 98.6668 499.223 85.7893C522.151 62.0622 544.787 50.9766 556.587 50.9766C561.537 50.9766 564.578 52.9233 564.937 56.7077C566.155 69.5147 513.934 89.7532 493.242 118.595C488.159 125.682 483.557 132.74 479.505 139.362" fill="#D9E8FA"/>
<path id="path20" d="M487.743 160.632C487.116 158.826 486.585 156.981 486.145 155.116C485.641 152.975 485.015 150.933 484.286 148.98C488.87 141.559 494.506 134.317 501.36 128.361C518.61 113.364 534.947 106.633 543.893 106.633C548.318 106.633 550.933 108.281 550.958 111.386C551.032 120.768 511.798 132.173 494.935 151.824C492.401 154.778 490 157.738 487.743 160.632Z" fill="#D9E8FA"/>
<path id="path22" d="M540.315 270.872C536.133 270.872 531.852 270.65 527.663 270.182C526.963 256.494 523.178 246.208 519.39 239.167C526.304 242.793 549.299 240.385 560.29 249.739C571.312 259.124 580.24 264.908 559.751 269.097C554.171 270.238 547.388 270.872 540.315 270.872V270.872ZM580.31 249.75C579.768 249.75 579.222 249.725 578.673 249.672C556.611 247.556 549.792 233.897 536.133 232.838C534.51 232.711 532.937 232.651 531.437 232.651C524.449 232.651 519.07 233.936 517.549 235.696C514.05 228.627 511.917 220.971 511.269 213.113C510.389 202.44 507.115 193.575 503.271 186.584C503.792 173.319 503.088 159.273 503.088 159.273C503.088 159.273 541.484 140.833 558.906 140.833C559.596 140.833 560.258 140.862 560.881 140.925C560.881 140.925 535.721 183.482 543.234 183.482C543.325 183.482 543.42 183.475 543.519 183.461C551.925 182.416 580.845 138.309 580.845 138.309C580.845 138.309 587.111 137.151 595.222 137.151C608.244 137.151 626.015 140.136 630.211 155.675C637.026 180.895 625.987 193.494 619.682 195.068C613.377 196.638 572.928 196.089 573.977 201.341C574.808 205.513 592.205 211.684 606.963 211.684C610.786 211.684 614.436 211.269 617.569 210.3C617.569 210.3 601.562 249.75 580.31 249.75V249.75ZM495.487 175.206C493.516 172.601 491.808 169.82 490.369 166.912C492.629 165.708 494.956 164.701 497.304 163.997C497.304 163.997 496.406 168.76 495.487 175.206Z" fill="#D9E8FA"/>
<path id="path24" d="M169.109 275.378C159.732 272.157 149.03 268.861 137.692 266.056C130.376 264.246 122.285 263.577 113.951 263.577C102.076 263.577 89.7106 264.936 78.4075 266.299C67.1026 267.658 56.8622 269.016 49.2336 269.016C42.9143 269.016 38.3864 268.083 36.5364 265.443C29.6679 255.639 52.8131 242.635 91.8147 242.635C97.5768 242.635 103.687 242.92 110.095 243.54C132.129 245.673 153.161 254.907 169.764 264.542C169.426 267.372 169.222 270.368 169.18 273.533C169.169 274.149 169.148 274.765 169.109 275.378" fill="#D9E8FA"/>
<path id="path26" d="M92.2585 302.129C89.1969 302.129 86.9495 301.576 85.7881 300.193C79.4304 292.613 100.806 279.613 136.445 279.613C136.915 279.613 137.388 279.613 137.862 279.62C148.033 279.715 158.093 281.887 167.315 284.967C166.678 286.967 165.883 288.917 164.936 290.804C164.334 292.004 163.717 293.353 163.11 294.859C161.866 294.645 160.609 294.437 159.343 294.236C156.354 293.768 153.217 293.564 149.99 293.564C139.513 293.564 128.095 295.704 117.789 297.848C107.483 299.988 98.2889 302.129 92.2585 302.129" fill="#D9E8FA"/>
<path id="path28" d="M161.796 381.601C158.98 381.498 159.312 378.358 160.188 373.944C160.549 376.408 161.071 378.971 161.796 381.601ZM142.501 380.544C131.816 380.544 118.792 373.155 118.792 373.155C127.824 369.663 137.655 355.367 136.175 352.473C136.05 352.227 135.796 352.114 135.436 352.114C131.566 352.114 115.339 365.21 112.05 366.695C111.377 367.002 110.477 367.185 109.421 367.185C104.839 367.185 97.2836 363.749 92.2019 351.906C85.9487 337.332 109.168 325.046 109.168 325.046C109.168 325.046 132.878 332.939 141.436 332.939C142.566 332.939 143.431 332.802 143.943 332.488C148.339 329.82 119.657 318.773 119.657 318.773C126.813 311.887 154.085 305.744 154.085 305.744C154.085 305.744 156.042 308.494 158.798 312.056C157.611 321.691 157.891 333.882 161.381 348.802C161.381 348.802 159.21 355.944 159.517 366.287C158.091 369.762 156.063 373.49 152.14 377.253C149.639 379.654 146.21 380.544 142.501 380.544V380.544ZM159.644 306.726C158.997 306.145 158.617 305.818 158.617 305.818C159.044 305.649 159.482 305.491 159.927 305.35C159.829 305.8 159.735 306.258 159.644 306.726" fill="#D9E8FA"/>
<path id="path30" d="M357.923 105.422C357.923 105.422 390.341 81.505 448.902 114.1C448.902 114.1 479.198 125.619 486.144 155.116C487.978 162.913 491.442 170.242 496.501 176.505C502.63 184.088 509.889 196.378 511.269 213.113C511.998 221.977 514.624 230.588 518.961 238.382C524.034 247.489 529.307 262.43 527.371 283.548C527.371 283.548 546.11 303.759 535.566 348.802C535.566 348.802 544.145 377.038 524.787 402.501C524.787 402.501 529.61 434.994 501.606 445.886C501.606 445.886 486.824 479.677 442.812 481.73C436.437 482.029 430.178 483.476 424.263 485.849C415.885 489.214 400.839 492.495 379.217 486.81C344.08 477.569 347.608 456.25 347.608 456.25V110.604L357.923 105.422" fill="#F78248"/>
<path id="path32" d="M339.025 105.422C339.025 105.422 306.607 81.505 248.049 114.1C248.049 114.1 216.306 126.168 210.353 157.228C209.1 163.779 206.083 169.89 201.714 174.984C194.994 182.821 186.197 196.715 185.496 216.289C185.246 223.231 183.137 229.969 179.452 235.893C174.833 243.321 169.415 255.773 169.179 273.533C169.098 279.532 167.634 285.428 164.935 290.804C160.195 300.249 154.441 319.143 161.381 348.802C161.381 348.802 154.717 370.733 166.392 393.373C169.51 399.417 171.46 405.986 172.055 412.742C172.83 421.514 176.118 433.948 187.619 441.841C192.642 445.287 196.993 449.6 200.616 454.465C207.952 464.332 223.618 479.456 251.629 481.578C259.321 482.159 266.89 483.758 274.124 486.401C282.732 489.549 297.299 492.182 317.734 486.81C352.867 477.569 349.34 456.25 349.34 456.25V110.604L339.025 105.422Z" fill="#F78248"/>
<path id="path34" d="M319.108 334.963C303.464 333.059 290.903 324.127 281.775 308.416C281.74 308.353 281.701 308.289 281.666 308.23C277.367 300.777 279.825 291.335 287.126 286.678C288.594 285.742 289.854 284.703 290.695 283.601C290.695 283.601 274.917 285.882 255.854 278.046C244.674 273.452 237.102 263.877 237.102 263.877C237.313 264.183 238.133 274.343 247.455 282.834C250.166 285.302 256.495 288.47 261.05 289.473C265.764 290.508 267.764 295.183 269.503 299.626C270.96 303.347 272.868 307.533 275.329 311.799C279.437 318.91 284.295 324.856 289.805 329.566C279.237 334.28 273.298 341.592 270.084 347.27C266.053 354.395 265.331 360.538 265.303 360.795C265.303 360.795 269.225 353.216 277.526 345.83C284.862 339.307 294.547 336.033 304.414 336.459C311.321 336.758 319.108 334.963 319.108 334.963" fill="#EA7147"/>
<path id="path36" d="M252.478 381.386C251.668 381.386 250.855 381.361 250.042 381.315C239.069 380.675 229.676 375.56 222.889 366.53C212.318 352.473 214.726 339.684 218.605 331.432C218.651 331.337 218.696 331.242 218.742 331.147C220.351 327.796 221.252 334.065 221.059 337.765C220.643 345.7 226.899 357.954 234.682 364.594C243.691 372.275 258.283 372.103 269.407 372.476C273.572 372.613 277.085 372.891 273.367 375.38C268.048 378.943 259.877 381.386 252.478 381.386" fill="#EA7147"/>
<path id="path38" d="M229.926 423.398C226.128 425.404 221.397 424.151 219.14 420.529C205.837 399.178 188.01 383.688 187.781 383.583C188.897 384.093 215.25 396.376 229.926 423.398" fill="#EA7147"/>
<path id="path40" d="M193.624 314.862C196.789 308.842 205.094 306.6 211.533 305.783C219.196 304.811 229.926 306.16 229.926 306.16C228.92 306.04 213.057 291.388 195.071 302.798C193.941 291.98 180.634 287.255 180.634 287.255C180.656 287.283 182.835 290.223 184.686 294.483C186.369 298.348 188.129 304.121 186.95 309.68C185.848 314.886 182.268 319.227 176.315 322.582C176.315 322.582 188.932 325.05 193.624 314.862" fill="#EA7147"/>
<path id="path42" d="M286.385 254.935C292.909 253.006 300.305 257.396 305.378 261.444C311.419 266.26 317.935 274.892 317.935 274.892C317.315 274.089 316.763 252.502 296.045 247.56C303.012 239.21 297.119 226.374 297.119 226.374C297.115 226.41 296.528 230.022 294.767 234.32C293.169 238.22 290.254 243.504 285.449 246.535C280.947 249.376 275.342 249.838 268.784 247.908C268.784 247.908 275.81 258.674 286.385 254.935" fill="#EA7147"/>
<path id="path44" d="M382.833 320.389C399.783 318.326 413.39 308.652 423.278 291.635C423.317 291.564 423.356 291.497 423.394 291.43C428.052 283.355 425.39 273.128 417.48 268.084C415.889 267.07 414.527 265.947 413.615 264.75C413.615 264.75 430.706 267.221 451.357 258.733C463.47 253.756 471.672 243.385 471.672 243.385C471.444 243.716 470.557 254.72 460.453 263.919C457.521 266.591 450.663 270.027 445.728 271.111C440.623 272.234 438.458 277.296 436.571 282.112C434.994 286.143 432.928 290.674 430.259 295.299C425.809 303.002 420.547 309.444 414.58 314.545C426.028 319.653 432.463 327.57 435.941 333.72C440.31 341.441 441.088 348.094 441.119 348.376C441.119 348.376 436.874 340.166 427.879 332.164C419.934 325.096 409.443 321.551 398.752 322.012C391.271 322.336 382.833 320.389 382.833 320.389" fill="#EA7147"/>
<path id="path46" d="M444.182 381.386C444.991 381.386 445.801 381.361 446.614 381.315C457.591 380.675 466.979 375.56 473.77 366.53C484.338 352.473 481.934 339.684 478.051 331.432C478.005 331.337 477.963 331.242 477.917 331.147C476.305 327.796 475.407 334.065 475.601 337.765C476.013 345.7 469.76 357.954 461.977 364.594C452.968 372.275 438.373 372.103 427.252 372.476C423.088 372.613 419.574 372.891 423.292 375.38C428.608 378.943 436.782 381.386 444.182 381.386Z" fill="#EA7147"/>
<path id="path48" d="M394.619 248.933C395.21 248.725 395.798 248.5 396.379 248.257C404.223 244.983 409.735 238.847 412.319 230.514C416.34 217.545 411.217 208.822 406.212 203.788C406.152 203.732 406.095 203.672 406.035 203.615C403.98 201.581 404.972 206.386 406.088 209.04C408.479 214.729 407.134 225.28 403.198 232.116C398.639 240.033 387.937 243.638 379.915 246.757C376.908 247.922 374.416 249.024 377.785 249.89C382.604 251.13 389.215 250.823 394.619 248.933" fill="#EA7147"/>
<path id="path50" d="M449.98 421.616C452.93 424.718 457.82 425.021 461.132 422.299C480.66 406.264 502.574 397.206 502.824 397.178C501.602 397.312 472.647 400.639 449.98 421.616" fill="#EA7147"/>
<path id="path52" d="M458.024 202.461C454.859 196.437 446.555 194.198 440.116 193.382C432.452 192.407 421.719 193.755 421.719 193.755C422.729 193.639 438.592 178.987 456.577 190.396C457.707 179.578 471.014 174.854 471.014 174.854C470.993 174.882 468.814 177.818 466.962 182.078C465.28 185.943 463.519 191.717 464.699 197.275C465.801 202.482 469.381 206.822 475.334 210.177C475.334 210.177 462.717 212.649 458.024 202.461" fill="#EA7147"/>
<path id="path54" d="M503.032 314.862C499.871 308.842 491.566 306.6 485.127 305.783C477.464 304.811 466.73 306.156 466.73 306.156C467.74 306.04 483.6 291.388 501.585 302.798C502.715 291.98 516.025 287.255 516.025 287.255C516.004 287.283 513.825 290.223 511.97 294.483C510.287 298.348 508.531 304.121 509.71 309.68C510.812 314.886 514.388 319.227 520.341 322.582C520.341 322.582 507.724 325.05 503.032 314.862" fill="#EA7147"/>
<path id="path56" d="M352.428 463.917L344.521 463.899L345.391 110.594L353.294 110.615L352.428 463.917" fill="#EA7147"/>
<path id="path62" d="M659.74 540.009C659.74 540.009 659.004 551.88 656.709 552.052C656.402 552.073 645.06 552.073 645.06 552.073L630.577 551.989C630.577 551.989 630.672 548.5 634.907 547.765C639.139 547.025 646.222 544.051 648.788 538.457C651.485 532.571 659.74 540.009 659.74 540.009" fill="#20497A"/>
<path id="path68" d="M627.486 540.009C627.486 540.009 626.75 551.88 624.455 552.052C624.149 552.073 612.806 552.073 612.806 552.073L598.324 551.989C598.324 551.989 598.419 548.5 602.654 547.765C606.885 547.025 613.968 544.051 616.534 538.457C619.231 532.571 627.486 540.009 627.486 540.009" fill="#20497A"/>
<path id="path90" d="M537.461 364.312C537.468 355.047 535.567 348.802 535.567 348.802C546.11 303.759 527.372 283.548 527.372 283.548C527.393 283.302 527.414 283.059 527.435 282.816C528.477 283.467 529.498 284.157 530.501 284.886C533.131 286.801 535.62 288.987 537.929 291.441C548.715 302.907 553.383 317.907 552.06 332.435C551.007 344.053 546.117 355.363 537.461 364.312" fill="#DAE8FA"/>
<path id="path94" d="M469.645 371.23C467.381 369.677 465.213 367.931 463.167 365.988C462.724 365.569 462.284 365.139 461.851 364.699C461.893 364.664 461.935 364.629 461.977 364.594C469.761 357.954 476.013 345.7 475.601 337.765C475.446 334.801 475.992 330.193 477.041 330.193C477.301 330.193 477.594 330.478 477.917 331.147C477.963 331.242 478.006 331.337 478.051 331.432C481.934 339.684 484.339 352.473 473.77 366.53C472.486 368.237 471.109 369.807 469.645 371.23Z" fill="#D98D7D"/>
<path id="path96" d="M517.022 322.846C512.949 322.846 506.193 321.723 503.032 314.862C499.871 308.842 491.566 306.6 485.127 305.783C483.096 305.526 480.847 305.431 478.639 305.431C472.542 305.431 466.762 306.153 466.73 306.156C467.459 306.072 475.886 298.454 487.261 298.454C491.686 298.454 496.551 299.605 501.585 302.798C502.715 291.98 516.025 287.255 516.025 287.255C516.004 287.283 513.825 290.223 511.97 294.483C510.287 298.348 508.531 304.121 509.71 309.68C510.812 314.887 514.388 319.227 520.341 322.582C520.341 322.582 518.997 322.846 517.022 322.846V322.846Z" fill="#D98D7D"/>
<path id="path98" d="M480.213 376.82C474.038 374.409 468.233 370.793 463.167 365.988C465.212 367.931 467.381 369.677 469.644 371.23C472.985 373.518 476.534 375.384 480.213 376.82ZM462.847 289.575C462.987 289.438 463.132 289.301 463.276 289.163C468.782 283.985 475.108 280.218 481.804 277.845C483.131 277.374 484.472 276.962 485.827 276.603C477.646 278.782 469.873 282.961 463.276 289.163C463.132 289.301 462.987 289.438 462.847 289.575ZM530.501 284.886C529.497 284.157 528.476 283.467 527.434 282.816C519.669 277.962 510.892 275.307 502.014 274.881C512.082 275.364 522.02 278.715 530.501 284.886V284.886ZM485.849 276.596C485.863 276.592 485.873 276.589 485.884 276.585C485.873 276.589 485.863 276.592 485.849 276.596Z" fill="#45648E"/>
<g id="magnify-glass">
<path id="path58" d="M559.8 331.544C559.8 331.544 558.807 329.305 558.163 328.246C557.518 327.186 554.765 324.081 554.294 324.785C553.825 325.489 551.953 330.217 552.949 331.544C553.945 332.868 552.886 335.174 557.835 336.568L559.8 331.544" fill="#FFB27D"/>
<path id="path60" d="M614.837 317.414C614.837 317.414 589.483 338.575 579.598 336.617C571.871 335.086 560.007 331.016 560.007 331.016L557.635 337.085C557.635 337.085 568.273 351.515 579.366 351.61C596.704 351.758 609.511 344.105 609.511 344.105L614.837 317.414Z" fill="#6980E0"/>
<path id="path64" d="M660.13 541.449C660.13 541.449 655.729 542.92 652.294 542.92C648.46 542.92 644.975 541.878 644.975 541.878C644.975 541.878 644.144 533.862 639.585 516.204C637.195 506.946 633.78 495.047 628.922 480.258C615.488 439.387 611.405 415.477 611.032 413.213C611.01 413.093 611.003 413.033 611.003 413.033L611.049 413.016L652.343 394.883C652.343 394.883 647.238 451.212 653.751 472.834C654.663 475.854 655.444 479.378 656.113 483.194C660.225 506.678 660.13 541.449 660.13 541.449" fill="#F99746"/>
<path id="path66" d="M639.585 516.204C637.194 506.946 633.78 495.047 628.922 480.258C615.488 439.387 611.404 415.477 611.031 413.213C611.035 413.146 611.038 413.083 611.049 413.016L652.343 394.883C652.343 394.883 647.238 451.212 653.751 472.834C654.662 475.854 639.585 516.204 639.585 516.204" fill="#ED7D2B"/>
<path id="path70" d="M603.632 396.21C603.632 396.21 603.093 432.712 609.409 477.53C615.724 522.347 613.584 541.375 613.584 541.375C613.584 541.375 617.925 542.779 619.674 542.92C624.135 543.286 628.711 541.875 628.711 541.875C628.711 541.875 637.751 497.043 635.157 474.608C632.566 452.176 647.538 397.632 647.538 397.632L603.632 396.21" fill="#F99746"/>
<path id="path72" d="M633.196 308.053L627.56 315.323L615.728 315.963C615.664 315.013 615.488 311.045 615.337 307.448C615.326 307.236 615.319 307.025 615.309 306.817C615.182 303.758 615.133 300.403 615.133 300.403L624.511 293.894L628.031 291.198C628.035 291.261 628.584 294.503 628.584 294.982C628.626 304.322 633.196 308.053 633.196 308.053" fill="#FFB27D"/>
<path id="path74" d="M601.224 397.79C601.389 417.057 602.674 462.128 603.617 463.047C613.654 472.732 657.792 460.389 660.133 449.719C662.471 439.045 651.241 312.887 634.1 307.849C630.544 306.803 611.528 312.95 611.528 312.95C611.528 312.95 608.546 320.751 606.589 330.693C605.863 334.375 603.498 360.654 602.118 378.214C601.752 382.892 601.452 386.955 601.276 389.799C601.206 390.979 601.192 393.844 601.224 397.79" fill="#8C9DF4"/>
<path id="path76" d="M627.827 295.324C626.461 299.819 618.639 305.321 615.337 307.448C615.327 307.236 615.32 307.025 615.309 306.818C615.182 303.758 615.077 297.577 615.077 297.577L624.511 293.894C626.842 293.292 628.391 293.472 627.827 295.324" fill="#FCA56B"/>
<path id="path78" d="M611.978 298.675C611.978 298.675 629.499 304.139 632.737 293.176C635.973 282.21 640.412 275.532 629.361 271.579C618.311 267.625 614.893 271.163 612.921 274.561C610.953 277.958 607.503 296.968 611.978 298.675Z" fill="#FFB27D"/>
<path id="path80" d="M613.612 273.504C613.612 273.504 614.728 286.262 617.368 285.71C620.005 285.157 623.486 285.065 623.099 288.91C622.715 292.757 626.352 299.284 628.774 299.27C636.934 299.217 645.921 277.268 643.689 273.297C637.24 261.838 604.293 259.529 613.612 273.504Z" fill="#163560"/>
<path id="path82" d="M616.189 308.127C616.415 308.032 629.232 302.28 630.732 302.776C632.231 303.269 634.101 307.849 634.101 307.849L611.528 312.953C611.528 312.953 613.306 309.342 616.189 308.127Z" fill="#6980E0"/>
<path id="path84" d="M533.147 372.669L599.052 442.661C600.322 444.013 602.519 444.034 603.927 442.71L608.409 438.493C609.817 437.165 609.93 434.972 608.655 433.62L542.624 363.502C541.35 362.15 540.244 363.214 538.833 364.537L534.351 368.758C532.943 370.082 531.873 371.317 533.147 372.669" fill="#1F4D84"/>
<path id="path86" d="M569.276 411.013L598.953 442.559C600.28 443.967 602.519 444.034 603.927 442.71L608.409 438.493C609.817 437.166 609.887 434.93 608.56 433.518L578.883 401.976L569.276 411.013" fill="#ED7D2B"/>
<path id="path88" d="M462.832 289.779C470.654 282.425 480.124 277.916 489.97 276.212C506.865 273.286 524.857 278.637 537.488 292.057C557.477 313.302 556.456 346.728 535.21 366.713C521.787 379.34 503.499 383.582 486.813 379.636C477.093 377.33 467.915 372.254 460.558 364.435C440.573 343.19 441.594 309.768 462.832 289.779ZM458.002 366.836C479.314 389.493 514.961 390.577 537.615 369.265C545.032 362.284 550.14 353.776 552.9 344.679C558.578 326.004 554.375 304.889 540.04 289.652C518.728 266.999 483.085 265.918 460.431 287.227C460.135 287.512 459.836 287.794 459.551 288.082C437.753 309.479 436.968 344.482 458.002 366.836Z" fill="#163560"/>
<path id="path92" d="M499.035 381.058C494.927 381.058 490.822 380.583 486.812 379.632C484.426 379.069 482.07 378.337 479.768 377.436C476.089 375.999 472.541 374.134 469.2 371.845C470.664 370.423 472.041 368.853 473.326 367.146C483.894 353.089 481.49 340.3 477.607 332.048C477.561 331.953 477.519 331.858 477.473 331.763C477.149 331.094 476.857 330.809 476.596 330.809C475.547 330.809 475.001 335.417 475.156 338.381C475.568 346.316 469.316 358.57 461.533 365.21C461.49 365.245 461.448 365.28 461.406 365.315C461.121 365.023 460.839 364.731 460.558 364.432C440.71 343.334 441.579 310.225 462.402 290.191C462.543 290.054 462.687 289.916 462.832 289.779C469.429 283.576 477.202 279.398 485.383 277.219C485.39 277.215 485.397 277.215 485.404 277.211C485.418 277.208 485.429 277.204 485.439 277.201C486.939 276.807 488.449 276.476 489.97 276.212C492.966 275.694 495.993 275.434 499.021 275.434C499.873 275.434 500.721 275.455 501.57 275.497C510.448 275.923 519.224 278.577 526.99 283.432C526.969 283.675 526.948 283.918 526.927 284.164C526.927 284.164 545.665 304.374 535.122 349.417C535.122 349.417 537.023 355.662 537.016 364.928C536.432 365.533 535.83 366.128 535.21 366.709C525.015 376.306 512.011 381.058 499.035 381.058V381.058ZM478.194 306.047C480.402 306.047 482.651 306.142 484.683 306.399C491.121 307.215 499.426 309.458 502.587 315.478C505.748 322.339 512.504 323.462 516.577 323.462C518.552 323.462 519.897 323.198 519.897 323.198C513.944 319.843 510.367 315.502 509.265 310.296C508.086 304.737 509.842 298.964 511.525 295.098C513.38 290.839 515.559 287.899 515.581 287.871C515.581 287.871 502.27 292.595 501.14 303.413C496.106 300.22 491.241 299.069 486.816 299.069C475.442 299.069 467.014 306.687 466.285 306.772C466.317 306.768 472.097 306.047 478.194 306.047" fill="#E2997D"/>
<path id="path100" d="M601.224 397.79C643.102 369.431 639.69 330.422 639.69 330.422C623.349 339.641 607.152 361.464 602.118 378.214C601.752 382.892 601.452 386.955 601.276 389.799C601.206 390.979 601.192 393.844 601.224 397.79" fill="#6980E0"/>
<path id="path102" d="M564.313 383.438C561.521 382.794 559.645 380.681 559.254 380.312C559.254 380.312 558.064 380.393 559.451 382.934C559.567 383.146 559.824 383.691 560.018 384.079C560.095 384.237 559.986 384.42 559.81 384.431C558.198 384.554 556.579 383.917 553.477 384.564C553.048 384.652 552.924 385.68 552.939 386.117C552.967 386.856 552.914 387.687 553.773 388.82C554.273 389.482 555.67 390.19 558.775 391.44C559.962 391.918 563.345 391.559 566.517 390.468L569.051 389.296L568.266 384.586L567.629 384.719C566.619 384.931 565.365 383.695 564.313 383.438" fill="#FFB27D"/>
<path id="path104" d="M627.405 312.954C627.405 312.954 662.978 319.727 616.935 371.244C609.574 379.485 569.787 390.211 569.787 390.211C569.787 390.211 565.753 386.779 567.788 383.998C567.788 383.998 595.18 364.108 601.206 360.943C603.917 359.521 611.729 329.196 616.15 321.892C620.572 314.587 627.405 312.954 627.405 312.954Z" fill="#8C9DF4"/>
<path id="path106" d="M558.835 332.168C558.835 332.168 557.674 329.943 557.445 328.771C557.22 327.598 555.755 324.176 555.15 323.575C554.907 323.335 554.111 323.645 554.016 324.683C553.977 325.134 554.199 325.954 554.59 326.933C555.224 328.524 555.121 330.682 555.343 331.404C555.892 333.196 558.835 332.168 558.835 332.168" fill="#FFB27D"/>
</g>
<path id="path108" d="M347.362 382.551C344.969 374.859 334.552 373.416 330.359 380.295C329.606 381.534 329.127 382.956 329.085 384.586C328.856 393.605 346.644 428.516 349.003 431.604C353.301 437.226 379.25 450.744 379.25 450.744L384.763 449.941C384.763 449.941 381.643 447.984 378.415 444.759C371.751 438.106 362.032 427.284 360.254 425.788C357.198 423.215 351.911 397.157 347.362 382.551" fill="#ED985F"/>
<path id="path110" d="M354.895 338.424C355.036 337.843 342.306 344.176 341.662 344.894C335.692 351.516 337.395 360.158 340.81 360.239C343 360.292 342.577 363.936 342.577 363.936L366.984 353.61C366.984 353.61 364.044 336.473 354.895 338.424Z" fill="#233862"/>
<path id="path112" d="M357.898 339.761C357.898 339.761 349.741 331.351 340.873 337.934C333.185 343.648 339.859 352.649 330.221 355.789C325.419 357.356 317.579 360.795 320.512 374.556C322.487 383.822 351.653 393.461 349.942 401.248C349.942 401.248 359.869 385.719 352.564 378.119C349.09 374.504 344.703 365.407 345.091 363.935C345.481 362.464 357.898 339.761 357.898 339.761" fill="#233862"/>
<path id="path114" d="M328.06 545.35L322.776 544.575C322.776 544.575 305.02 530.462 302.372 504.126C302.105 501.447 302.048 498.726 302.249 495.987C302.27 495.67 302.235 495.354 302.062 495.086L302.059 495.079C301.489 494.21 300.074 492.027 298.158 488.922C296.272 485.863 293.04 480.079 289.484 473.591C283.081 461.907 275.625 447.931 273.069 443.478C264.919 429.294 268.848 419.754 268.848 419.754C268.848 419.754 291.579 417.505 297.806 412.059L300.052 415.516C300.052 415.516 304.977 437.317 304.741 437.419C304.984 438.162 305.231 438.915 305.481 439.683C309.371 451.68 313.838 466.673 316.278 478.885C317.647 485.757 318.372 491.742 317.982 495.822C317.848 497.219 318.013 499.37 318.383 502.025C320.583 517.673 328.06 545.35 328.06 545.35" fill="#2B478B"/>
<path id="path116" d="M339.138 552.035H317.1C317.1 552.035 316.572 548.676 317.723 546.128C318.829 543.681 320.399 543.604 317.924 539.773C319.325 541.213 323.828 541.812 327.014 541.382C327.404 542.016 329.527 546.261 330.833 547.198C332.273 548.233 338.694 547.863 339.138 552.035" fill="#2B4570"/>
<path id="path118" d="M305.481 439.683C303.559 450.3 299.01 467.969 289.484 473.591C283.081 461.907 275.625 447.931 273.069 443.478C264.919 429.294 268.848 419.754 268.848 419.754C268.848 419.754 291.579 417.505 297.806 412.059L300.052 415.516C300.052 415.516 304.977 437.317 304.741 437.419C304.984 438.162 305.231 438.915 305.481 439.683" fill="#233862"/>
<path id="path120" d="M290.026 421.391L290.104 417.272C281.891 418.307 261.789 407.458 261.789 407.458C261.789 407.458 253.2 413.171 252.024 429.488C251.45 437.454 247.817 471.137 247.416 481.195C247.268 484.838 247.222 487.44 247.205 488.478V488.489C247.201 488.806 247.05 489.087 246.856 489.337C245.156 491.499 243.684 493.787 242.406 496.16C229.877 519.472 236.429 551.148 236.429 551.148L239.34 550.408C239.34 550.408 249.933 517.571 256.857 503.366C258.033 500.958 259.1 499.082 259.994 497.997C262.599 494.836 265.341 489.464 268.049 483.004C273.164 470.785 278.131 454.662 281.672 442.175C281.922 442.221 290.026 421.391 290.026 421.391" fill="#2B478B"/>
<path id="path122" d="M352.346 369.906V369.91H352.343L352.332 369.931L352.325 369.941L352.297 369.984L352.29 369.994C352.177 370.181 351.878 370.645 351.438 371.286C351.399 371.342 351.357 371.402 351.318 371.466C350.621 372.472 349.618 373.849 348.453 375.222C346.872 377.084 344.989 378.946 343.162 379.872V379.876C342.609 379.425 332.544 370.92 333.28 371.23C335.139 370.853 340.856 368.023 344.521 363.404C346.224 361.257 352.346 369.906 352.346 369.906" fill="#FFB27D"/>
<path id="path124" d="M346.555 379.876C346.555 379.876 348.914 384.533 350.174 388.567C351.435 392.602 354.585 405.433 354.585 405.433C354.585 405.433 348.087 412.847 339.046 412.414C339.046 412.414 334.188 404.807 335.899 397.935C337.614 391.067 346.555 379.876 346.555 379.876Z" fill="#6980E0"/>
<path id="path126" d="M352.347 369.909L352.333 369.931L352.326 369.941L352.298 369.983L352.291 369.994C352.167 370.174 351.854 370.638 351.439 371.286C351.4 371.342 351.358 371.402 351.319 371.465C350.622 372.472 349.619 373.849 348.453 375.222C343.711 371.986 343.719 365.882 344.102 362.682L352.343 369.909H352.347" fill="#ED985F"/>
<path id="path128" d="M352.575 373.532C352.575 373.532 340.127 366.604 344.56 358.919C348.995 351.234 350.372 345.165 358.507 349.263C366.639 353.36 366.481 357.176 365.622 360.102C364.77 363.024 355.927 375.134 352.575 373.532" fill="#FFB27D"/>
<path id="path130" d="M367.727 355.617C367.157 352.206 365.421 351.882 364.214 352.107C359.62 344.507 352.108 347.474 352.108 347.474C348.098 352.509 342.3 353.367 342.3 353.367C342.3 353.367 343.743 356.054 349.693 357.715C351.513 358.226 353.576 357.916 355.565 357.247C351.435 359.549 347.119 360.433 347.119 360.433C354.959 361.147 362.422 353.98 363.197 353.213C363.559 354.325 364.193 356.648 363.813 358.349C363.295 360.662 361.246 364.847 362.496 365.389C362.496 365.389 368.583 360.736 367.727 355.617" fill="#233862"/>
<path id="path132" d="M253.953 552.035H231.915C231.915 552.035 231.387 548.676 232.538 546.128C233.64 543.681 235.369 542.572 234.957 539.611C236.354 541.055 238.639 542.671 241.825 542.241C242.216 542.875 244.342 546.261 245.648 547.198C247.088 548.233 253.509 547.863 253.953 552.035" fill="#2B4570"/>
<path id="path134" d="M339.659 408.841C336.825 409.83 332.844 410.372 328.774 410.816C322.98 411.446 316.999 411.879 313.865 413.129C313.253 413.372 311.468 414.118 309.683 415.41V415.413C309.683 415.413 309.641 415.442 309.56 415.509C308.969 415.938 308.377 416.438 307.832 416.998C307.001 417.853 306.276 418.853 305.811 419.997C304.663 422.838 306.184 430.709 307.159 435.011C307.553 436.743 306.737 438.532 305.16 439.348C302.956 440.489 300.791 441.541 298.661 442.503C298.548 442.555 298.439 442.601 298.327 442.654C298.348 442.217 298.355 441.781 298.355 441.358C298.358 438.387 297.982 435.92 297.982 435.92C297.457 438.915 295.486 442.151 293.645 444.643C264.074 456.507 243.413 451.349 243.751 445.439C244.916 424.915 258.758 407.457 258.758 407.457C284.569 377.443 336.783 369.54 336.783 369.54C336.783 369.54 339.282 369.241 342.299 372.867C346.64 378.087 346.858 379.45 346.858 379.45C346.858 379.45 348.002 405.93 339.659 408.841" fill="#8C9DF4"/>
<path id="path136" d="M328.774 410.812C322.98 411.446 316.995 411.879 313.862 413.129C312.581 393.992 321.614 379.597 321.614 379.597C321.614 379.597 327.504 403.571 328.774 410.812Z" fill="#6980E0"/>
<path id="path138" d="M307.16 435.011C307.554 436.743 306.737 438.532 305.16 439.348C302.956 440.489 300.791 441.542 298.662 442.503C298.549 442.14 298.447 441.76 298.355 441.358C298.021 439.859 297.866 438.067 297.982 435.92C298.475 426.834 304.664 419.955 307.832 416.998C307.001 417.853 306.276 418.853 305.811 419.997C304.664 422.838 306.185 430.709 307.16 435.011" fill="#6980E0"/>
<path id="path140" d="M336.783 369.54C336.783 369.54 339.057 366.667 340.592 366.759C340.592 366.759 346.806 375.458 346.858 379.45C346.858 379.45 339.107 369.135 336.783 369.54Z" fill="#6980E0"/>
<path id="path142" d="M396.397 453.718C396.397 453.718 393.095 453.778 392.38 453.676C391.679 453.574 390.743 453.271 389.803 453.236C388.877 453.204 388.029 453.504 387.159 453.683C387.029 453.708 386.899 453.718 386.765 453.718H381.287C381.287 453.718 380.735 453.458 380.133 452.49C379.876 452.071 379.841 451.075 379.249 450.744C375.929 448.892 384.762 449.941 384.762 449.941C384.762 449.941 390.307 449.839 390.817 450.223C391.729 450.906 396.604 453.458 396.397 453.718" fill="#ED985F"/>
<path id="path144" d="M381.288 453.722C381.288 453.722 384.65 454.694 385.565 455.317L386.53 455.926C386.53 455.926 387.089 455.303 386.209 454.609C385.744 454.243 384.463 453.176 384.421 451.951C384.382 450.723 380.584 451.796 381.288 453.722" fill="#ED985F"/>
<path id="path146" d="M433.571 547.057C425.651 547.057 419.229 540.636 419.229 532.715V442.126H447.917V532.715C447.917 540.636 441.496 547.057 433.571 547.057" fill="#C7D8FF"/>
<path id="path148" d="M433.572 542.899C427.686 542.899 422.916 538.126 422.916 532.24V500.018H444.231V532.24C444.231 538.126 439.458 542.899 433.572 542.899" fill="#D14842"/>
<path id="path150" d="M476.4 547.057C468.479 547.057 462.058 540.636 462.058 532.715V442.126H490.745V532.715C490.745 540.636 484.324 547.057 476.4 547.057" fill="#C7D8FF"/>
<path id="path152" d="M476.4 542.899C470.514 542.899 465.744 538.126 465.744 532.24V491.08H487.06V532.24C487.06 538.126 482.286 542.899 476.4 542.899Z" fill="#D14842"/>
<path id="path154" d="M369.319 480.311C362.017 477.231 358.599 468.817 361.679 461.52L396.904 378.059L423.331 389.212L388.11 472.672C385.03 479.973 376.616 483.392 369.319 480.311" fill="#C7D8FF"/>
<path id="path156" d="M371.944 476.903L369.924 476.052C365.059 473.999 362.781 468.391 364.833 463.526L390.243 403.314L413.146 403.867L384.47 471.813C382.417 476.678 376.809 478.959 371.944 476.903" fill="#D14842"/>
<path id="path158" d="M366.622 463.582C366.622 463.582 369.026 465.719 370.853 466.17C372.68 466.621 374.761 471.855 375.092 472.605C375.426 473.351 373.346 472.271 372.515 470.996C371.684 469.722 371.117 469.226 370.874 469.5C370.631 469.778 371.019 473.27 372.406 475.21C373.789 477.146 374.62 478.864 373.624 478.755C372.627 478.643 366.696 477.203 365.478 473.601C364.26 470 365.154 469.873 362.352 466.17C359.549 462.463 366.622 463.582 366.622 463.582Z" fill="#FFB27D"/>
<path id="path160" d="M334.858 375.894C334.858 375.894 320.336 377.33 319.171 386.765C318.009 396.203 333.094 434.635 335.256 438.116C339.188 444.453 362.352 466.17 362.352 466.17L366.622 463.582C366.622 463.582 350.192 435.768 347.647 433.167C343.655 429.08 339.776 379.165 334.858 375.894" fill="#FFB27D"/>
<path id="path162" d="M342.3 393.922C342.3 393.922 343.789 369.593 325.17 375.475C306.547 381.358 328.06 423.204 328.06 423.204C328.06 423.204 338.987 422.665 342.863 413.129L342.3 393.922Z" fill="#8C9DF4"/>
<path id="path164" d="M502.648 539.372H372.462V534.683H502.648V539.372" fill="#94B0ED"/>
<path id="path166" d="M378.556 538.217H372.462V553.281H378.556V538.217" fill="#94B0ED"/>
<path id="path168" d="M502.648 534.683H495.702V553.281H502.648V534.683Z" fill="#94B0ED"/>
<path id="path170" d="M447.586 443.031H418.814C418.117 443.031 417.543 442.457 417.543 441.76C417.543 441.059 418.117 440.485 418.814 440.485H447.586C448.283 440.485 448.857 441.059 448.857 441.76C448.857 442.457 448.283 443.031 447.586 443.031Z" fill="#ABC1EF"/>
<path id="path172" d="M490.784 443.031H462.016C461.315 443.031 460.745 442.457 460.745 441.76C460.745 441.059 461.315 440.485 462.016 440.485H490.784C491.485 440.485 492.059 441.059 492.059 441.76C492.059 442.457 491.485 443.031 490.784 443.031Z" fill="#ABC1EF"/>
<path id="path174" d="M422.775 389.764L395.746 379.918C395.087 379.679 394.746 378.946 394.985 378.288C395.225 377.63 395.957 377.288 396.615 377.528L423.648 387.374C424.303 387.613 424.648 388.349 424.408 389.007C424.169 389.662 423.433 390.004 422.775 389.764" fill="#ABC1EF"/>
<path id="path176" d="M135.605 550.313C135.287 551.169 109.746 552.133 109.625 549.426C109.622 549.384 109.622 549.338 109.622 549.289C109.622 549.218 109.624 549.145 109.627 549.06C109.631 548.778 109.649 548.5 109.685 548.222L109.689 548.205C109.76 547.673 109.876 547.145 109.993 546.628C110.149 545.945 110.471 545.156 110.794 544.332C111.257 543.135 111.721 541.857 111.661 540.703C111.477 536.985 110.139 529.163 110.139 529.163L117.488 528.346C117.488 528.346 118.65 539.14 120.045 541.558C121.935 544.843 125.239 546.649 128.726 547.641C129.119 547.754 129.509 547.867 129.898 547.972C132.992 548.821 135.889 549.553 135.605 550.313" fill="#F4A36C"/>
<path id="path178" d="M135.853 550.345C135.535 551.2 133.141 553.108 127.094 552.848C121.043 552.584 122.226 551.524 117.889 551.897C113.552 552.274 109.746 552.133 109.625 549.426C109.622 549.384 109.622 549.338 109.622 549.289C109.622 549.028 109.647 548.655 109.685 548.222L109.689 548.205C109.76 547.673 109.876 547.145 109.993 546.627C110.149 545.945 110.471 545.156 110.794 544.332C113.534 545.057 117.17 548.31 120.966 548.803C125.933 549.451 129.859 548.025 129.859 548.025L129.898 547.972C133.584 548.638 136.14 549.581 135.853 550.345Z" fill="#0F2549"/>
<path id="path180" d="M139.327 438.817C137.024 438.817 135.158 436.947 135.158 434.645V408.316H143.495V434.645C143.495 436.947 141.629 438.817 139.327 438.817Z" fill="#CDE3FD"/>
<path id="path182" d="M139.327 437.606C137.616 437.606 136.229 436.219 136.229 434.508V425.144H142.424V434.508C142.424 436.219 141.037 437.606 139.327 437.606Z" fill="#94B7EA"/>
<path id="path184" d="M151.774 438.817C149.472 438.817 147.605 436.947 147.605 434.645V408.316H155.943V434.645C155.943 436.947 154.077 438.817 151.774 438.817Z" fill="#CDE3FD"/>
<path id="path186" d="M151.774 437.606C150.064 437.606 148.677 436.219 148.677 434.508V422.546H154.872V434.508C154.872 436.219 153.485 437.606 151.774 437.606Z" fill="#94B7EA"/>
<path id="path188" d="M128.064 438.817C125.762 438.817 123.896 436.947 123.896 434.645V408.316H132.233V434.645C132.233 436.947 130.367 438.817 128.064 438.817Z" fill="#CDE3FD"/>
<path id="path190" d="M128.064 437.606C126.354 437.606 124.967 436.219 124.967 434.508V422.546H131.162V434.508C131.162 436.219 129.775 437.606 128.064 437.606Z" fill="#94B7EA"/>
<path id="path192" d="M121.043 441.387H118.699V434.423H121.043V441.387Z" fill="#77A4E5"/>
<path id="path194" d="M161.139 441.387H158.794V434.423H161.139V441.387Z" fill="#77A4E5"/>
<path id="path196" d="M161.139 436.458H118.699V434.423H161.139V436.458Z" fill="#77A4E5"/>
<path id="path198" d="M63.776 346.341C63.776 346.341 59.183 343.827 54.0183 345.415C43.584 348.622 48.6125 357.194 43.3263 360.63C38.0405 364.066 33.2057 374.57 36.5401 379.946C39.8739 385.325 44.7587 389.905 47.7204 386.237C50.6824 382.569 53.6557 377.485 53.6814 370.54C53.7047 364.27 56.2231 351.519 60.5362 352.498C64.8497 353.477 63.776 346.341 63.776 346.341" fill="#233862"/>
<path id="path200" d="M79.2345 355.599C79.2345 355.599 74.2 344.359 63.7766 346.341C53.3536 348.323 51.9191 367.868 58.7887 370.388C63.5679 372.138 79.2345 355.599 79.2345 355.599Z" fill="#233862"/>
<path id="path202" d="M74.5656 553.063C74.0833 553.063 73.6644 552.767 73.5169 552.348C74.3826 552.348 75.2317 552.348 76.1044 552.348C75.8013 552.767 75.2943 553.049 74.7103 553.059L74.5874 553.063C74.5804 553.063 74.573 553.063 74.5656 553.063ZM10.1344 553.063C10.127 553.063 10.12 553.063 10.1126 553.063L9.98976 553.059C9.41524 553.049 8.91535 552.778 8.61084 552.369C9.461 552.369 10.3098 552.366 11.1765 552.366C11.023 552.778 10.6093 553.063 10.1344 553.063" fill="#C9D7F6"/>
<path id="path204" d="M8.61035 552.369C8.38294 552.063 8.26466 551.683 8.30514 551.278L0.220667 415.984C-1.28499 408.141 5.10797 400.963 13.4938 400.963C13.6054 400.963 13.718 400.963 13.8303 400.966L43.9434 401.491C51.8508 401.67 58.726 406.961 60.9238 414.562L78.3129 474.679H106.109H106.951C108.31 474.679 109.422 475.791 109.422 477.15V477.991V482.071V482.913C109.422 484.272 108.31 485.384 106.951 485.384H106.109H69.7961L76.3943 551.278C76.4337 551.672 76.3214 552.045 76.1039 552.348C75.2312 552.348 74.3821 552.348 73.5164 552.348C73.495 552.288 73.4794 552.225 73.4699 552.158L63.9207 485.384H12.418L11.2291 552.158C11.2189 552.232 11.2006 552.302 11.176 552.366C10.3093 552.366 9.46052 552.369 8.61035 552.369" fill="#BFD1F3"/>
<path id="path206" d="M45.6655 414.375L55.2986 438.75C55.2986 438.75 64.5803 449.688 72.0407 446.164L48.4343 400.322L45.6655 414.375" fill="#ABDDDA"/>
<path id="path208" d="M116.787 463.611C109.791 456.654 66.3373 438.278 51.6652 436.705L34.8949 430.572C34.8949 430.572 28.0605 446.942 27.9514 462.586C27.9003 469.877 36.9005 474.679 30.0914 474.679C30.0914 474.679 89.4476 474.443 91.7267 474.679C95.4569 475.062 93.357 483.853 94.5866 492.316C95.8163 500.782 111.345 536.327 111.345 536.327C111.345 536.327 115.866 537.774 117.957 537.654C120.205 537.52 121.246 536.767 121.246 536.767C121.246 536.767 125.281 472.052 116.787 463.611" fill="#233862"/>
<path id="path210" d="M97.2534 550.257C97.3724 552.964 122.916 552 123.234 551.144C123.518 550.384 120.622 549.655 117.526 548.803C117.137 548.697 116.746 548.585 116.355 548.476C112.866 547.479 109.565 545.674 107.675 542.393C106.28 539.971 105.116 529.181 105.116 529.181L97.7652 529.997C97.7652 529.997 99.1068 537.82 99.2906 541.537C99.3871 543.484 98.0064 545.779 97.6223 547.458C97.4164 548.37 97.2101 549.307 97.2534 550.257" fill="#FFB27D"/>
<path id="path212" d="M105.517 552.728C109.854 552.355 108.673 553.415 114.722 553.679C120.771 553.939 123.165 552.031 123.483 551.176C123.767 550.415 121.213 549.472 117.526 548.803L117.488 548.859C117.488 548.859 113.529 550.834 108.561 550.19C104.511 549.662 100.416 547.846 97.6223 547.458C97.4164 548.37 97.2101 549.306 97.2534 550.257C97.3724 552.964 101.18 553.105 105.517 552.728Z" fill="#304F7F"/>
<path id="path214" d="M106.547 463.706C102.437 459.411 75.2038 450.603 61.3934 446.104C58.0674 445.02 25.7344 428.995 25.7344 428.995C25.7344 428.995 20.6236 474.675 26.7898 474.735C38.3426 474.851 83.0746 476.886 84.8252 477.013C90.1205 477.393 87.3381 489.651 89.4344 499.367C91.578 509.308 97.7783 536.327 97.7783 536.327C97.7783 536.327 102.299 537.774 104.39 537.654C106.638 537.52 107.679 536.767 107.679 536.767C107.679 536.767 114.827 472.359 106.547 463.706" fill="#2B478B"/>
<path id="path216" d="M68.8427 372.476C68.8427 372.476 68.5804 374.321 68.1612 376.609C67.9112 377.978 67.6049 379.51 67.2663 380.893C66.9882 382.034 66.6897 383.076 66.3792 383.843C65.2787 386.568 64.4116 389.226 64.9196 389.768C64.9601 389.807 59.1463 390.384 55.9209 387.948C52.885 385.66 51.6233 379.502 51.6754 379.495C53.3197 379.193 55.2394 378.834 58.6101 370.3L59.2107 370.688L68.8427 372.476Z" fill="#FFB27D"/>
<path id="path218" d="M68.1612 376.609C67.9113 377.978 67.605 379.51 67.2664 380.893C61.763 377.281 59.7962 374.064 58.6792 371.082L68.1612 376.609Z" fill="#ED975D"/>
<path id="path220" d="M70.7837 377.992C70.7837 377.992 56.4527 375.584 58.0903 366.681C59.728 357.782 58.9813 351.473 68.2004 352.635C77.4195 353.797 78.5671 357.521 78.7432 360.626C78.9192 363.728 74.5536 378.39 70.7837 377.992Z" fill="#FFB27D"/>
<path id="path222" d="M78.3809 355.705C78.3809 355.705 68.9027 363.341 62.614 363.774C56.3245 364.203 55.7173 361.299 55.7173 361.299C55.7173 361.299 57.8147 359.169 60.2018 354.293C60.9056 352.853 62.3229 351.899 63.9211 351.815C68.4095 351.576 76.8999 351.681 78.3809 355.705Z" fill="#233862"/>
<path id="path224" d="M72.645 354.8C72.645 354.8 75.6289 357.884 76.5265 360.127C77.3929 362.292 77.5045 367.403 76.6913 369.406C76.6913 369.406 81.8039 360.225 79.2348 355.599C76.5111 350.692 72.645 354.8 72.645 354.8" fill="#233862"/>
<path id="path226" d="M75.4131 395.323C75.4269 389.303 66.4609 383.632 66.4609 383.632C66.4609 383.632 64.2843 389.609 53.7141 378.633C53.3399 378.246 28.7699 394.478 28.7699 394.478C28.7699 394.478 24.6515 415.523 23.746 425.144C21.0192 454.116 24.4589 477.013 24.4589 477.013C24.4589 477.013 59.9257 483.328 83.3455 446.597C83.3455 446.597 75.0664 427.643 75.0664 422.366C75.0664 418.955 75.4071 398.016 75.4131 395.323Z" fill="#8C9DF4"/>
<path id="path228" d="M27.9512 431.744C27.9512 431.744 37.9708 445.129 66.8264 442.784L53.3853 430.055L27.9512 431.744Z" fill="#6980E0"/>
<path id="path230" d="M64.1991 428.066L60.9343 432.279C59.8067 432.47 49.1366 427.816 44.0145 425.795C36.9664 423.014 40.2861 405.433 42.5183 411.386C45.4909 419.314 55.3908 423.595 64.1991 428.066Z" fill="#6980E0"/>
<path id="path232" d="M93.9923 415.878L103.071 411.696L87.8778 378.717L78.7988 382.9L93.9923 415.878Z" fill="#314387"/>
<path id="path234" d="M86.5092 392.514L90.8473 390.514L83.5876 374.757L79.2495 376.757L86.5092 392.514Z" fill="#314387"/>
<path id="path236" d="M62.0893 436.131L70.0221 434.909C69.9999 434.761 67.8004 419.934 71.6478 408.359C75.511 396.735 88.6595 394.594 88.7922 394.577L87.5784 386.642C86.8395 386.754 69.4257 389.595 64.0315 405.824C59.5621 419.272 61.9841 435.451 62.0893 436.131" fill="#314387"/>
<path id="path238" d="M49.6685 441.943H83.9834V440C83.9834 436.032 80.7658 432.815 76.7966 432.815H58.3105C53.5377 432.815 49.6685 436.684 49.6685 441.457V441.943" fill="#314387"/>
<path id="path240" d="M66.8262 425.042H103.96V422.366H66.8262V425.042Z" fill="#314387"/>
<path id="path242" d="M78.2075 441.943H103.96V437.377H78.2075V441.943Z" fill="#314387"/>
<path id="path244" d="M88.2412 437.377H96.3795V435.522H88.2412V437.377Z" fill="#314387"/>
<path id="path246" d="M78.4937 433.892C78.4937 433.892 80.4823 436.458 81.1343 436.764C81.7862 437.071 82.2076 436.993 82.2076 436.993L80.8674 434.582L78.4937 433.892Z" fill="#FFB27D"/>
<path id="path248" d="M78.0342 431.248L83.8163 434.057C83.8163 434.057 83.5703 434.459 82.8581 434.427C82.1463 434.395 80.3506 433.737 80.3506 433.737L78.0342 431.248Z" fill="#FFB27D"/>
<path id="path250" d="M67.0112 432.522C67.0112 432.522 76.5028 430.407 78.0341 431.248C79.5655 432.093 83.3083 435.159 83.7772 436.226C84.2458 437.292 80.3674 435.416 79.1061 435.078C78.2894 434.86 76.1388 435.606 75.0746 435.962C70.5949 437.454 67.8501 436.687 67.8501 436.687L67.0112 432.522Z" fill="#FFB27D"/>
<path id="path252" d="M170.045 445.129H35.6313V441.334H170.045V445.129Z" fill="#2557A0"/>
<path id="path254" d="M169.465 555.08C169.186 554.686 168.609 553.865 164.978 498.782C163.19 471.655 161.526 444.383 161.509 444.108L162.93 444.023C164.742 473.753 169.669 551.528 170.683 554.362C170.683 554.358 170.665 554.316 170.626 554.263L169.465 555.08" fill="#2557A0"/>
<path id="path256" d="M34.4773 554.481L33.3139 553.661C33.2751 553.717 33.26 553.76 33.2593 553.76C34.277 550.94 39.3812 473.587 41.2621 444.02L42.6822 444.111C42.6649 444.383 40.9379 471.503 39.0883 498.487C35.3331 553.267 34.7551 554.087 34.4773 554.481Z" fill="#2557A0"/>
<path id="path258" d="M53.7142 378.633C53.7142 378.633 39.2294 378.633 34.4245 383.442C26.8906 390.982 21.1404 423.954 26.642 430.572C32.8375 438.028 68.0515 438.419 68.0515 438.419C68.0515 438.419 68.8964 436.884 67.0109 432.523C66.6152 431.604 44.0135 422.518 43.3281 421.31C42.6427 420.106 42.0274 403.124 42.8078 400.287C43.5883 397.453 53.7142 378.633 53.7142 378.633" fill="#8C9DF4"/>
<path id="path260" d="M412.407 162.47C412.992 163.135 413.066 163.881 412.777 164.68L412.77 164.691C412.238 166.162 410.475 167.81 408.429 169.454C408.169 169.665 407.937 169.855 407.732 170.035C407.68 170.081 407.627 170.126 407.578 170.176C407.535 170.211 407.497 170.249 407.454 170.281C405.546 172.041 406.264 172.446 402.836 176.016C398.928 180.082 396.235 180.156 395.468 179.786C394.82 179.469 396.136 177.311 397.597 174.886C397.668 174.77 397.735 174.653 397.809 174.534C398.002 174.21 398.196 173.882 398.389 173.559C400.097 170.64 399.66 169.271 399.255 164.93C398.925 161.399 393.764 145.213 393.764 145.213L401.255 143.921C401.255 143.921 403.512 156.812 405.997 158.798C407.328 159.854 408.813 159.868 410.091 160.653C410.183 160.706 410.271 160.762 410.359 160.818C411.084 161.301 411.823 161.797 412.407 162.47" fill="#FFB27D"/>
<path id="path262" d="M412.407 162.47C412.992 163.135 413.066 163.881 412.777 164.68L412.77 164.691C412.119 166.162 410.401 167.799 408.422 169.436C408.162 169.651 407.936 169.848 407.732 170.035C407.679 170.081 407.627 170.126 407.577 170.176C407.535 170.211 407.496 170.249 407.454 170.281C405.546 172.041 406.264 172.446 402.835 176.016C398.928 180.082 396.235 180.156 395.467 179.786C394.82 179.469 396.136 177.311 397.597 174.886C398.358 174.608 401.892 173.171 404.564 169.753C406.835 166.856 408.373 163.167 409.918 160.903C410.087 160.871 410.189 160.85 410.358 160.818C411.084 161.301 411.823 161.797 412.407 162.47" fill="#233862"/>
<path id="path264" d="M351.994 157.787C351.53 160.1 348.235 159.717 344.552 158.815C340.87 157.914 341.743 158.984 336.501 158.403C331.26 157.826 329.672 155.869 329.514 155.091C329.369 154.397 331.96 154.154 334.738 153.834C335.086 153.795 335.438 153.753 335.79 153.711C338.927 153.317 341.222 151.292 344.07 149.631C346.77 148.054 350.798 141.64 350.798 141.64L357.986 142.21C357.986 142.21 354.212 147.937 352.755 150.43C351.896 151.894 351.942 153.834 352.051 155.33C352.104 156.143 352.156 156.974 351.994 157.787Z" fill="#FFB27D"/>
<path id="path266" d="M344.552 158.815C340.87 157.914 341.743 158.984 336.501 158.403C331.26 157.826 329.672 155.869 329.514 155.091C329.369 154.397 331.96 154.154 334.738 153.834L334.762 153.887C334.762 153.887 337.906 156.119 342.271 156.221C345.827 156.309 349.594 155.288 352.051 155.33C352.104 156.143 352.156 156.974 351.995 157.787C351.53 160.1 348.235 159.717 344.552 158.815" fill="#233862"/>
<path id="path268" d="M379.541 111.822L386.261 129.906L395.038 153.517C395.038 153.517 397.417 153.746 399.699 153.091C401.797 152.482 404.205 150.895 404.205 150.895C404.205 150.895 401.769 125.545 397.224 110.992C396.059 107.256 394.752 104.236 393.313 102.536C386.268 94.2065 379.541 111.822 379.541 111.822" fill="#233862"/>
<path id="path270" d="M386.374 83.1032C390.201 81.8711 400.181 83.0856 411.006 85.0429C413.999 85.585 417.015 84.2191 418.589 81.6211L445.837 79.4913C445.837 79.4913 456.69 101.068 448.593 112.026C443.865 118.43 427.929 117.511 423.099 116.522C409.827 113.801 394.739 105.915 392.781 105.524C389.578 104.884 388.297 111.287 385.093 118.014C381.893 124.738 354.987 147.8 354.987 147.8C354.987 147.8 350.854 147.839 349.147 147.198C347.309 146.512 346.637 145.614 346.637 145.614C346.637 145.614 376.447 86.3067 386.374 83.1032" fill="#2B478B"/>
<path id="path272" d="M452.684 98.2478C452.564 113.903 448.526 121.098 448.526 121.098C413.449 116.392 405.687 84.1347 405.687 84.1347C412.946 83.9974 415.952 79.4949 415.952 79.4949L445.478 60.6575L447.273 59.5099L449.118 58.3341C449.118 58.3341 449.67 61.3193 450.343 66.1281C451.23 72.5316 452.335 82.1668 452.617 92.2913C452.673 94.2662 452.698 96.2552 452.684 98.2478" fill="#8C9DF4"/>
<path id="path274" d="M418.75 44.0979C428.453 49.4418 448.135 60.5168 448.237 60.4429C448.237 60.4429 455.471 63.1711 459.572 60.4464C466.412 55.9016 470.084 43.6754 457.573 33.1531C451.335 27.9078 446.903 26.6299 446.227 18.2515C445.861 13.6856 439.598 -1.4167 429.202 0.107611C428.368 0.230823 427.53 0.283656 426.689 0.259013C425.478 0.22733 423.506 0.410388 421.482 1.61435C415.642 5.09245 404.204 42.0314 418.75 44.0979" fill="#152949"/>
<path id="path276" d="M426.883 39.5531C426.837 39.5813 431.657 41.2253 434.874 39.7996C437.905 38.4583 440.201 33.4735 440.155 33.4735C438.779 33.4101 437.205 31.2029 436.099 24.2959L435.512 24.5072L425.644 28.0592C425.644 28.0592 426.359 31.224 426.823 34.2409C427.211 36.7685 427.422 39.1941 426.883 39.5531Z" fill="#FFB27D"/>
<path id="path278" d="M425.644 28.0591C425.644 28.0591 426.038 29.7665 426.612 32.9595C432.28 31.9386 434.712 27.5733 435.512 24.5071L425.644 28.0591" fill="#ED975D"/>
<path id="path280" d="M424.176 31.1992C424.176 31.1992 437.677 29.3898 436.416 20.9973C435.16 12.6083 436.057 6.7258 427.383 7.52844C418.709 8.32756 417.519 11.781 417.259 14.6853C416.995 17.586 420.631 31.4562 424.176 31.1992" fill="#FFB27D"/>
<path id="path282" d="M417.748 10.0843C417.748 10.0843 426.391 17.5333 432.269 18.1318C438.148 18.7338 440.373 16.8469 440.373 16.8469C440.373 16.8469 436.909 13.9707 434.825 9.3274C434.209 7.95799 432.91 7.01802 431.418 6.89128C427.218 6.52869 419.262 6.36327 417.748 10.0843" fill="#152949"/>
<path id="path284" d="M423.151 9.41895C423.151 9.41895 420.261 12.2141 419.349 14.2876C418.473 16.2872 418.209 21.0748 418.906 22.9723C418.906 22.9723 414.403 14.2137 416.952 9.95759C419.659 5.44803 423.151 9.41895 423.151 9.41895Z" fill="#152949"/>
<path id="path286" d="M415.512 59.4396C415.921 86.768 415.625 81.058 418.614 83.649C419.335 84.2756 421.36 84.6453 424.024 84.8213C432.406 85.3775 447.136 83.9975 447.695 82.4486C449.628 77.0906 448.262 75.429 449.878 67.2231C450.043 66.35 450.255 65.4066 450.497 64.3786C451.842 58.7425 453.148 56.8275 448.378 47.7766C444.055 39.5742 439.644 32.8644 439.239 33.1038C427.826 39.8805 426.823 34.2409 426.823 34.2409C426.823 34.2409 415.315 46.1115 415.512 59.4396Z" fill="#8C9DF4"/>
<path id="path288" d="M386.262 129.906L395.038 153.517C395.038 153.517 397.418 153.746 399.699 153.091C401.797 152.482 404.205 150.895 404.205 150.895C404.205 150.895 401.769 125.545 397.224 110.992L386.262 129.906" fill="#2B478B"/>
<path id="path290" d="M426.823 34.2408C426.823 34.2408 416.47 35.7546 414.991 41.4646C413.678 46.5409 408.975 75.2916 408.975 75.2916C408.975 75.2916 411.094 80.2659 413.851 77.5094C416.607 74.7495 422.528 48.794 422.528 48.794L426.823 34.2408Z" fill="#8C9DF4"/>
<path id="path292" d="M423.627 80.6847C423.627 80.6847 421.891 82.9201 421.324 83.1877C420.758 83.4552 420.392 83.3884 420.392 83.3884L421.557 81.2867L423.627 80.6847" fill="#FFB27D"/>
<path id="path294" d="M424.024 78.386L418.99 80.8327C418.99 80.8327 419.205 81.1812 419.825 81.153C420.444 81.1249 422.007 80.5546 422.007 80.5546L424.024 78.386Z" fill="#FFB27D"/>
<path id="path296" d="M452.617 92.2914C444.83 91.6719 425.176 85.0501 428.537 80.3751C430.09 78.2136 440.5 77.2525 445.872 70.3984C447.322 68.5502 445.692 63.5126 445.477 60.6576C445.389 59.4255 445.449 58.5348 445.872 58.3342C446.262 58.1476 446.759 58.6651 447.273 59.51C448.618 61.7208 450.085 66.1881 450.085 66.1881L450.342 66.1282C451.23 72.5318 452.335 82.1669 452.617 92.2914Z" fill="#6980E0"/>
<path id="path298" d="M433.624 79.4914C433.624 79.4914 425.358 77.6502 424.024 78.386C422.69 79.1182 419.43 81.7902 419.022 82.7195C418.613 83.6489 421.993 82.0154 423.091 81.7197C423.802 81.5296 425.675 82.1809 426.605 82.4907C430.505 83.7897 432.896 83.1208 432.896 83.1208L433.624 79.4914Z" fill="#FFB27D"/>
<path id="path300" d="M439.239 33.1037C439.239 33.1037 450.265 33.8395 454.106 39.1975C459.516 46.7416 465.322 79.0056 459.172 83.2933C452.247 88.1233 432.575 84.448 432.575 84.448C432.575 84.448 430.734 78.9774 432.896 78.7732C438.757 78.2135 450.209 75.7739 450.1 73.2181C449.938 69.3281 442.717 56.4225 442.717 53.8597C442.717 51.2969 439.239 33.1037 439.239 33.1037Z" fill="#8C9DF4"/>
<path id="path302" d="M381.02 84.1347H433.624V85.2964H381.488L381.02 84.1347Z" fill="#F99746"/>
<path id="path304" d="M421.325 85.2964H381.489L369.505 55.4932H409.282L421.325 85.2964Z" fill="#F99746"/>
<path id="path306" d="M391.542 70.3948C391.243 69.3492 391.849 68.4973 392.898 68.4973C393.943 68.4973 395.038 69.3492 395.337 70.3948C395.636 71.4438 395.031 72.2922 393.985 72.2922C392.936 72.2922 391.845 71.4438 391.542 70.3948Z" fill="white"/>
<path id="path308" d="M184.447 223.963H99.8678C90.0742 223.963 82.1348 216.025 82.1348 206.231V92.2175C82.1348 82.4239 90.0742 74.4855 99.8678 74.4855H287.635C297.429 74.4855 305.367 82.4239 305.367 92.2175V96.9629C290.709 97.065 271.47 101.064 248.049 114.1C248.049 114.1 216.306 126.168 210.353 157.228C209.1 163.779 206.083 169.89 201.714 174.984C194.994 182.821 186.197 196.715 185.496 216.289C185.401 218.887 185.049 221.453 184.447 223.963V223.963ZM139.474 163.438C139.915 164.867 141.319 166.933 145.624 168.084C147.327 168.539 148.827 168.708 150.122 168.708C152.114 168.708 153.619 168.303 154.635 167.887C155.818 167.405 157.07 167.113 158.346 167.053C167.149 166.638 170.105 159.78 170.105 159.78C175.709 157.573 174.745 150.979 174.745 150.979C178.617 145.815 176.899 140.087 176.899 140.087C179.008 130.948 175.259 126.851 175.259 126.851C175.646 122.566 174.594 119.535 173.58 117.687C172.71 116.107 172.186 114.357 172.038 112.562C171.763 109.164 170.313 106.672 169.084 105.134C168.074 103.863 167.381 102.377 167.014 100.793C165.625 94.812 159.563 92.4745 159.563 92.4745C154.816 89.7955 150.928 88.9999 147.982 88.9999C143.658 88.9999 141.364 90.7143 141.364 90.7143L139.474 91.6753L137.583 90.7143C137.583 90.7143 135.289 88.9999 130.966 88.9999C128.02 88.9999 124.132 89.7955 119.385 92.4745C119.385 92.4745 113.035 94.9211 111.844 101.223C111.593 102.553 110.99 103.792 110.116 104.824C108.772 106.415 107.012 109.235 106.871 113.206C106.821 114.614 106.399 115.98 105.662 117.18C104.739 118.687 103.654 121.215 103.607 124.819C103.591 126.034 103.298 127.231 102.759 128.322C101.81 130.237 100.659 134.071 102.048 140.087C102.048 140.087 100.714 144.537 103.05 149.127C103.673 150.356 104.064 151.687 104.183 153.056C104.338 154.837 104.995 157.358 107.296 158.96C108.301 159.66 109.172 160.533 109.896 161.523C111.364 163.522 114.497 166.592 120.101 167.021C121.639 167.141 123.153 167.465 124.601 168C125.605 168.373 127.015 168.708 128.826 168.708C130.121 168.708 131.62 168.539 133.324 168.084C137.629 166.933 139.032 164.867 139.474 163.438" fill="#BACDFE"/>
<path id="path310" d="M287.636 223.963H184.447C185.049 221.453 185.401 218.887 185.496 216.289C186.197 196.715 194.994 182.821 201.715 174.984C206.083 169.89 209.1 163.779 210.354 157.228C216.306 126.168 248.049 114.1 248.049 114.1C271.47 101.064 290.709 97.065 305.368 96.9629V206.231C305.368 216.025 297.429 223.963 287.636 223.963" fill="#BDB6DA"/>
<path id="path312" d="M141.364 90.7143C141.364 90.7143 147.849 85.8632 159.563 92.4744C159.563 92.4744 165.624 94.8119 167.013 100.793C167.38 102.377 168.074 103.863 169.084 105.134C170.312 106.672 171.763 109.164 172.037 112.562C172.185 114.357 172.71 116.107 173.579 117.687C174.593 119.535 175.646 122.566 175.259 126.851C175.259 126.851 179.008 130.948 176.899 140.087C176.899 140.087 178.617 145.815 174.745 150.979C174.745 150.979 175.709 157.573 170.105 159.78C170.105 159.78 167.149 166.638 158.345 167.053C157.07 167.113 155.817 167.405 154.635 167.887C152.959 168.57 149.948 169.236 145.623 168.084C138.594 166.208 139.3 161.882 139.3 161.882V91.7633L141.364 90.7143" fill="#9DB0F4"/>
<path id="path314" d="M137.584 90.7143C137.584 90.7143 131.099 85.8633 119.385 92.4745C119.385 92.4745 113.035 94.9211 111.845 101.223C111.593 102.553 110.99 103.792 110.116 104.824C108.772 106.415 107.012 109.235 106.871 113.206C106.821 114.614 106.4 115.98 105.662 117.18C104.739 118.687 103.654 121.215 103.607 124.819C103.591 126.034 103.299 127.231 102.759 128.322C101.81 130.237 100.659 134.071 102.048 140.087C102.048 140.087 100.715 144.537 103.05 149.127C103.673 150.356 104.064 151.687 104.183 153.056C104.338 154.837 104.995 157.358 107.297 158.96C108.301 159.66 109.172 160.533 109.896 161.523C111.364 163.522 114.497 166.592 120.101 167.021C121.64 167.141 123.153 167.465 124.601 168C126.323 168.637 129.236 169.172 133.324 168.084C140.353 166.208 139.648 161.882 139.648 161.882V91.7633L137.584 90.7143" fill="#9DB0F4"/>
<path id="path316" d="M120.883 139.999C120.889 139.943 121.045 138.595 121.919 137.028C122.615 135.778 123.902 134.173 126.192 133.138C124.999 132.103 123.946 130.797 123.056 129.234C122.522 128.294 122.108 127.375 121.793 126.559C121.416 125.58 120.983 124.555 119.961 124.327C118.974 124.105 117.602 123.408 117.016 122.866C114.995 121 114.817 118.768 114.771 118.701C114.771 118.701 116.412 120.806 118.835 121.817C121.445 122.904 123.771 123.105 125.13 123.102C125.921 123.102 126.385 123.035 126.385 123.035C126.203 123.278 125.93 123.506 125.612 123.711C124.029 124.735 123.497 126.808 124.429 128.449L124.452 128.488C126.43 131.941 129.152 133.905 132.543 134.324C132.543 134.324 131.104 134.659 129.705 134.659C129.589 134.659 129.473 134.659 129.359 134.652C129.235 134.645 129.111 134.645 128.988 134.645C126.979 134.645 125.029 135.359 123.532 136.711C121.732 138.334 120.883 139.999 120.883 139.999" fill="#5A79BB"/>
<path id="path318" d="M120.271 146.698C120.109 146.698 119.946 146.691 119.784 146.681C117.589 146.55 115.71 145.515 114.352 143.681C112.238 140.83 112.719 138.235 113.495 136.563L113.523 136.503C113.587 136.37 113.645 136.313 113.698 136.313C113.908 136.313 114.017 137.246 113.986 137.848C113.903 139.457 115.154 141.942 116.711 143.291C118.513 144.85 121.432 144.815 123.657 144.889C124.491 144.917 125.193 144.973 124.45 145.477C123.386 146.202 121.751 146.698 120.271 146.698" fill="#5A79BB"/>
<path id="path320" d="M132.266 120.173C131.572 120.173 130.835 120.056 130.185 119.828C130.067 119.785 129.95 119.74 129.833 119.69C128.264 119.025 127.161 117.782 126.645 116.089C125.84 113.459 126.865 111.688 127.866 110.668L127.902 110.632C127.97 110.565 128.022 110.534 128.059 110.534C128.246 110.534 128.077 111.287 127.891 111.734C127.413 112.889 127.682 115.029 128.469 116.416C129.381 118.022 131.522 118.754 133.127 119.384C133.728 119.623 134.227 119.845 133.553 120.021C133.168 120.12 132.727 120.173 132.266 120.173" fill="#5A79BB"/>
<path id="path322" d="M114.99 155.411C114.441 155.411 113.908 155.137 113.602 154.637C110.941 150.307 107.375 147.163 107.329 147.142C107.552 147.244 112.824 149.736 115.76 155.218C115.515 155.351 115.251 155.411 114.99 155.411" fill="#5A79BB"/>
<path id="path324" d="M134.858 155.411C134.332 154.147 133.547 153.327 132.527 152.975C132.091 152.824 131.637 152.767 131.196 152.767C130.535 152.767 129.904 152.898 129.412 153.039C128.508 153.299 127.862 153.655 127.856 153.662C127.856 153.662 129.115 151.187 131.281 151.187C131.302 151.187 131.324 151.187 131.346 151.187C129.499 147.328 132.845 144.554 132.894 144.357C132.894 144.357 132.354 146.452 132.358 147.997C132.361 149.296 132.605 151 133.738 151.782C135.671 152.972 134.858 155.411 134.858 155.411" fill="#5A79BB"/>
<path id="path326" d="M114.704 112.019C114.309 112.019 114.04 111.967 114.04 111.967C115.23 111.284 115.946 110.404 116.167 109.347C116.402 108.221 116.051 107.049 115.714 106.264C115.343 105.401 114.908 104.806 114.903 104.799C114.903 104.799 117.566 105.757 117.792 107.95C118.798 107.306 119.772 107.07 120.657 107.07C122.933 107.07 124.619 108.615 124.764 108.633C124.764 108.633 123.605 108.485 122.381 108.485C121.94 108.485 121.49 108.506 121.084 108.559C119.796 108.724 118.135 109.178 117.502 110.4C116.87 111.791 115.519 112.019 114.704 112.019" fill="#5A79BB"/>
<path id="path328" d="M105.699 134.821C105.304 134.821 105.035 134.768 105.035 134.768C106.226 134.085 106.942 133.205 107.163 132.149C107.398 131.022 107.046 129.85 106.71 129.069C106.339 128.203 105.904 127.608 105.899 127.601C105.899 127.601 108.561 128.558 108.787 130.755C109.794 130.107 110.768 129.871 111.653 129.871C113.928 129.871 115.615 131.42 115.76 131.434C115.76 131.434 114.6 131.286 113.377 131.286C112.936 131.286 112.486 131.307 112.08 131.36C110.792 131.526 109.13 131.98 108.498 133.201C107.866 134.592 106.514 134.821 105.699 134.821" fill="#5A79BB"/>
<path id="path330" d="M127.177 105.57C127.177 105.57 126.162 102.525 128.576 101.039C129.99 100.064 130.294 97.9345 130.298 96.3116C130.304 94.3825 129.63 91.7633 129.63 91.7633C129.691 92.0097 133.868 95.4773 131.563 100.297C131.59 100.297 131.617 100.297 131.644 100.297C134.348 100.297 135.92 103.384 135.92 103.384C135.912 103.38 135.106 102.933 133.977 102.606C133.363 102.43 132.575 102.268 131.749 102.268C131.199 102.268 130.631 102.342 130.087 102.529C128.813 102.965 127.834 103.989 127.177 105.57" fill="#5A79BB"/>
<path id="path332" d="M118.397 163.621C118.397 163.621 117.45 160.773 119.703 159.386C121.024 158.477 121.308 156.488 121.312 154.975C121.317 153.172 120.687 150.729 120.687 150.729C120.744 150.961 124.644 154.197 122.492 158.696C122.517 158.696 122.542 158.696 122.567 158.696C125.093 158.696 126.56 161.575 126.56 161.575C126.552 161.572 125.8 161.156 124.746 160.854C124.172 160.688 123.437 160.537 122.666 160.537C122.152 160.537 121.622 160.604 121.114 160.78C119.925 161.188 119.011 162.142 118.397 163.621Z" fill="#5A79BB"/>
<path id="path334" d="M158.007 139.999C158.007 139.999 157.157 138.334 155.358 136.711C153.861 135.359 151.911 134.645 149.902 134.645C149.779 134.645 149.655 134.645 149.531 134.652C149.417 134.659 149.3 134.659 149.185 134.659C147.786 134.659 146.347 134.324 146.347 134.324C149.738 133.905 152.46 131.941 154.437 128.488L154.461 128.449C155.393 126.808 154.86 124.735 153.278 123.711C152.96 123.506 152.687 123.278 152.505 123.035C152.505 123.035 152.969 123.102 153.76 123.102C155.119 123.102 157.445 122.904 160.055 121.817C162.477 120.806 164.119 118.701 164.119 118.701C164.073 118.768 163.895 121 161.874 122.866C161.288 123.408 159.916 124.105 158.929 124.327C157.907 124.555 157.474 125.58 157.097 126.559C156.781 127.375 156.368 128.294 155.834 129.234C154.945 130.797 153.891 132.103 152.698 133.138C154.987 134.173 156.275 135.778 156.971 137.028C157.845 138.595 158.001 139.943 158.007 139.999" fill="#5A79BB"/>
<path id="path336" d="M158.619 146.698C157.139 146.698 155.504 146.202 154.44 145.477C153.697 144.973 154.399 144.917 155.233 144.889C157.458 144.815 160.377 144.85 162.179 143.291C163.736 141.942 164.987 139.457 164.904 137.848C164.873 137.246 164.982 136.313 165.192 136.313C165.245 136.313 165.303 136.37 165.368 136.503L165.394 136.563C166.171 138.235 166.652 140.83 164.538 143.681C163.18 145.515 161.301 146.55 159.106 146.681C158.943 146.691 158.781 146.698 158.619 146.698" fill="#5A79BB"/>
<path id="path338" d="M146.625 120.173C146.164 120.173 145.722 120.12 145.337 120.021C144.664 119.845 145.162 119.623 145.763 119.384C147.369 118.754 149.509 118.022 150.421 116.416C151.208 115.029 151.477 112.889 150.999 111.734C150.813 111.287 150.645 110.534 150.831 110.534C150.869 110.534 150.92 110.565 150.989 110.632L151.024 110.668C152.025 111.688 153.05 113.459 152.246 116.089C151.729 117.782 150.626 119.025 149.057 119.69C148.941 119.74 148.823 119.785 148.705 119.828C148.055 120.056 147.319 120.173 146.625 120.173" fill="#5A79BB"/>
<path id="path340" d="M163.369 153.102C162.933 153.102 162.499 152.929 162.179 152.588C166.714 148.332 172.506 147.656 172.749 147.628C172.699 147.635 168.316 149.472 164.41 152.725C164.106 152.979 163.737 153.102 163.369 153.102Z" fill="#5A79BB"/>
<path id="path342" d="M144.031 155.411C144.031 155.411 143.219 152.972 145.152 151.782C146.285 151 146.528 149.296 146.531 147.997C146.535 146.452 145.996 144.357 145.996 144.357C146.045 144.554 149.39 147.328 147.544 151.187C147.566 151.187 147.587 151.187 147.609 151.187C149.775 151.187 151.033 153.662 151.033 153.662C151.027 153.655 150.381 153.299 149.477 153.039C148.986 152.898 148.354 152.767 147.693 152.767C147.252 152.767 146.798 152.824 146.362 152.975C145.342 153.327 144.558 154.147 144.031 155.411" fill="#5A79BB"/>
<path id="path344" d="M164.186 112.019C163.371 112.019 162.02 111.791 161.388 110.4C160.755 109.178 159.094 108.724 157.806 108.559C157.399 108.506 156.95 108.485 156.508 108.485C155.285 108.485 154.125 108.633 154.125 108.633C154.271 108.615 155.957 107.07 158.233 107.07C159.117 107.07 160.091 107.306 161.098 107.95C161.324 105.757 163.986 104.799 163.986 104.799C163.982 104.806 163.546 105.401 163.176 106.264C162.839 107.049 162.487 108.221 162.723 109.347C162.944 110.404 163.659 111.284 164.85 111.967C164.85 111.967 164.581 112.019 164.186 112.019" fill="#5A79BB"/>
<path id="path346" d="M173.189 134.821C172.376 134.821 171.024 134.592 170.39 133.201C169.76 131.98 168.099 131.526 166.81 131.36C166.403 131.307 165.954 131.286 165.513 131.286C164.29 131.286 163.13 131.434 163.13 131.434C163.275 131.42 164.961 129.871 167.237 129.871C168.123 129.871 169.095 130.107 170.102 130.755C170.327 128.558 172.992 127.601 172.992 127.601C172.985 127.608 172.552 128.203 172.179 129.069C171.844 129.85 171.492 131.022 171.728 132.149C171.946 133.205 172.664 134.085 173.854 134.768C173.854 134.768 173.587 134.821 173.189 134.821" fill="#5A79BB"/>
<path id="path348" d="M151.714 105.57C151.057 103.989 150.077 102.965 148.803 102.529C148.259 102.342 147.691 102.268 147.141 102.268C146.315 102.268 145.528 102.43 144.914 102.606C143.785 102.933 142.978 103.38 142.971 103.384C142.971 103.384 144.542 100.297 147.246 100.297C147.273 100.297 147.3 100.297 147.327 100.297C145.022 95.4773 149.2 92.0097 149.261 91.7633C149.261 91.7633 148.587 94.3825 148.592 96.3116C148.596 97.9345 148.9 100.064 150.315 101.039C152.729 102.525 151.714 105.57 151.714 105.57" fill="#5A79BB"/>
<path id="path350" d="M160.493 163.621C159.879 162.142 158.965 161.188 157.775 160.78C157.268 160.604 156.738 160.537 156.224 160.537C155.453 160.537 154.717 160.688 154.144 160.854C153.09 161.156 152.337 161.572 152.33 161.575C152.33 161.575 153.797 158.696 156.322 158.696C156.347 158.696 156.372 158.696 156.398 158.696C154.245 154.197 158.146 150.961 158.202 150.729C158.202 150.729 157.574 153.172 157.578 154.975C157.582 156.488 157.866 158.477 159.187 159.386C161.44 160.773 160.493 163.621 160.493 163.621Z" fill="#5A79BB"/>
<path id="path352" d="M140.264 163.438H139.474C139.753 162.533 139.647 161.882 139.647 161.882V91.7633L140.438 91.7668L140.264 163.438" fill="#5A79BB"/>
<path id="path354" d="M139.475 163.438L138.684 163.434L138.857 91.7633H139.648V161.882C139.648 161.882 139.753 162.533 139.475 163.438Z" fill="#5A79BB"/>
<path id="path356" d="M243.455 91.7634H184.25V85.733H243.455V91.7634Z" fill="#2B478B"/>
<path id="path358" d="M231.641 103.303H184.25V100.29H231.641V103.303Z" fill="#9DB0F4"/>
<path id="path360" d="M215.19 111.424H184.25V108.408H215.19V111.424Z" fill="#2B478B"/>
<path id="path362" d="M250.76 111.424H219.82V108.408H250.76V111.424Z" fill="#9DB0F4"/>
<path id="path364" d="M265.053 103.303H236.467V100.29H265.053V103.303Z" fill="#2B478B"/>
<path id="path366" d="M274.476 91.7634H246.997V85.733H274.476V91.7634Z" fill="#F78248"/>
<path id="path368" d="M147.4 188.249H100.113V183.433H147.4V188.249Z" fill="#2B478B"/>
<path id="path370" d="M137.963 197.465H100.113V195.057H137.963V197.465Z" fill="#9DB0F4"/>
<path id="path372" d="M124.824 203.953H100.113V201.545H124.824V203.953Z" fill="#9DB0F4"/>
<path id="path374" d="M153.234 203.953H128.523V201.545H153.234V203.953Z" fill="#2B478B"/>
<path id="path376" d="M164.649 197.465H141.821V195.057H164.649V197.465" fill="#9DB0F4"/>
<path id="path378" d="M172.175 188.249H150.229V183.433H172.175V188.249Z" fill="#F78248"/>
<path id="path380" d="M243.768 128.368C245.17 129.755 245.184 132.019 243.797 133.42C242.413 134.821 240.15 134.835 238.748 133.451C237.344 132.064 237.333 129.804 238.717 128.4C240.104 126.998 242.364 126.984 243.768 128.368Z" fill="white"/>
<path id="path382" d="M229.477 143.407C231.036 144.949 231.05 147.466 229.508 149.025C227.966 150.588 225.453 150.602 223.89 149.06C222.33 147.519 222.316 145.001 223.858 143.442C225.4 141.879 227.914 141.865 229.477 143.407Z" fill="white"/>
<path id="path384" d="M211.825 135.504C213.159 136.82 213.17 138.968 211.853 140.298C210.537 141.633 208.393 141.643 207.059 140.326C205.728 139.01 205.714 136.866 207.03 135.532C208.347 134.201 210.494 134.187 211.825 135.504Z" fill="white"/>
<path id="path386" d="M195.783 144.699C197.113 146.015 197.127 148.163 195.811 149.494C194.494 150.828 192.347 150.838 191.016 149.522C189.682 148.209 189.671 146.061 190.988 144.727C192.304 143.396 194.452 143.382 195.783 144.699Z" fill="white"/>
<path id="path388" d="M193.248 146.85L209.431 137.574L226.614 145.868L241.04 130.702L241.477 131.117L226.748 146.6L209.456 138.257L193.551 147.374L193.248 146.85Z" fill="white"/>
<path id="path390" d="M252.27 152.042C250.936 151.102 250.615 149.254 251.555 147.92C252.499 146.582 254.343 146.262 255.681 147.202C257.015 148.145 257.336 149.99 256.396 151.328C255.456 152.665 253.608 152.986 252.27 152.042Z" fill="white"/>
<path id="path392" d="M261.902 137.795C260.413 136.746 260.057 134.694 261.106 133.205C262.152 131.719 264.208 131.364 265.693 132.409C267.179 133.458 267.538 135.511 266.489 137C265.444 138.485 263.388 138.841 261.902 137.795Z" fill="white"/>
<path id="path394" d="M277.409 141.844C276.142 140.95 275.836 139.197 276.73 137.926C277.624 136.658 279.377 136.352 280.648 137.246C281.915 138.14 282.222 139.894 281.327 141.164C280.433 142.432 278.68 142.738 277.409 141.844Z" fill="white"/>
<path id="path396" d="M289.269 132.131C287.998 131.237 287.696 129.484 288.59 128.216C289.484 126.946 291.237 126.643 292.508 127.537C293.775 128.428 294.078 130.184 293.184 131.452C292.293 132.723 290.537 133.025 289.269 132.131Z" fill="white"/>
<path id="path398" d="M291.047 130.026L279.085 139.82L263.902 135.394L254.182 149.765L253.77 149.483L263.694 134.81L278.972 139.267L290.73 129.639L291.047 130.026" fill="white"/>
<path id="path400" d="M221.059 200.658L217.609 182.543L216.102 190.28H195.772V189.059H215.095L217.623 176.069L221.228 195.012L222.85 188.619H226.364L228.758 177.466L231.824 194.469L233.436 187.96H240.685L243.353 179.209L245.691 194.529L247.567 187.96H253.566L255.329 178.35L259.117 193.466L260.487 187.96H268.245L268.654 192.547L272.927 175.84L275.733 188.003H288.354V189.228H274.762L272.864 181.018L268.066 199.785L267.126 189.182H261.444L259.117 198.514L255.512 184.127L254.586 189.182H248.489L245.324 200.264L242.955 184.711L241.593 189.182H234.394L231.634 200.324L228.652 183.782L227.349 189.84H223.804L221.059 200.658" fill="white"/>
<path id="path402" d="M190.344 211.895H293.36V169.045H190.344V211.895ZM294.036 212.571H189.672V168.373H294.036V212.571Z" fill="white"/>
</g>
</svg>
