<svg width="115" height="125" viewBox="0 0 115 125" fill="none" xmlns="http://www.w3.org/2000/svg">
<g id="Logo">
<path id="path16" d="M80.572 7.71438C95.6993 13.8076 106.737 28.9825 107.871 45.2532C108.214 50.1676 107.665 55.3145 105.163 59.5604C102.662 63.8074 97.9036 66.9536 92.9953 66.5042C89.1551 66.1522 85.8428 63.7763 82.742 61.4846C70.5965 52.5031 58.4505 43.5265 46.305 34.55C43.1195 32.1924 39.8764 29.7794 37.6068 26.5363C35.739 23.8633 33.714 18.8548 35.4346 15.645C36.9051 12.8944 41.6175 10.7859 44.2845 9.45216C51.3927 5.89917 59.4583 4.2776 67.3872 4.77015C71.9004 5.05239 76.3748 6.02643 80.572 7.71438Z" fill="#BBDDDE"/>
<path id="path18" d="M37.5506 124.412H36.1637V120.236C35.5499 107.855 30.1883 102.683 27.0465 100.701C23.2578 98.3122 22.2694 98.0986 19.3357 97.4638C18.5177 97.2873 17.4989 97.0671 16.2426 96.7599C15.682 96.6227 15.118 96.4926 14.5535 96.362C12.1732 95.8113 9.71161 95.2418 7.44589 94.1555C4.1519 92.5765 1.8657 90.0507 1.17281 87.2249C0.45336 84.2918 1.67422 81.254 2.75118 78.5743C2.9078 78.1847 3.06276 77.799 3.21052 77.4182C3.56527 76.5023 3.45182 75.422 2.91389 74.5997C2.77166 74.3822 2.59622 74.1729 2.41027 73.951C2.14241 73.6311 1.86514 73.3007 1.64654 72.899C1.08426 71.8674 1.06379 70.5757 1.59452 69.527C1.86072 69.0001 2.3267 68.5081 2.87515 68.1323C2.50767 67.8467 2.19831 67.4865 1.97749 67.0714C1.31283 65.8229 1.41743 64.5694 2.24424 63.8781C3.5946 62.7486 4.7413 61.7021 5.08774 60.3334C5.20673 59.8647 5.21171 59.4972 5.09549 59.0158C3.79217 58.1419 2.35604 57.1457 1.32556 55.7738C0.0609817 54.0914 -0.334165 52.0271 0.293419 50.3889C0.916576 48.7619 2.3826 47.738 3.56029 46.9134C4.531 46.2383 5.53767 45.5963 6.51115 44.9764C9.22404 43.2497 11.7864 41.6172 13.7167 39.1876C15.2475 37.2673 16.0821 34.9539 16.9665 32.5023C17.3251 31.5061 17.6959 30.4767 18.1154 29.4861C20.2079 24.544 23.5755 20.3269 26.8324 16.2537C30.4861 11.6879 37.3342 7.37674 39.3464 6.16474C49.6667 -0.0502243 58.0383 -0.255013 67.1405 0.110245C77.6003 0.525314 87.6715 3.87358 95.4986 9.53513C100.991 13.5087 105.65 18.8658 108.972 25.0255C112.294 31.1796 114.21 38.0144 114.513 44.7883C114.815 51.5622 113.518 58.5381 110.759 64.9689C108 71.3992 103.838 77.1487 98.7223 81.5961C94.3397 85.4058 91.6971 88.0385 87.8442 92.4316C81.078 100.147 79.5434 111.953 84.1135 121.142L82.8716 121.759C78.058 112.08 79.674 99.6443 86.8015 91.5167C90.701 87.0705 93.3762 84.4058 97.8125 80.5495C102.772 76.2383 106.808 70.6615 109.484 64.4216C112.161 58.1823 113.421 51.4128 113.127 44.8492C112.833 38.2855 110.975 31.6555 107.751 25.6785C104.528 19.707 100.01 14.5104 94.6856 10.6586C87.0771 5.15752 77.2749 1.90334 67.0846 1.49381C56.3283 1.06214 49.1952 1.85356 40.062 7.35461C38.1001 8.5334 31.4252 12.7339 27.916 17.1226C24.7177 21.1238 21.4105 25.2579 19.3927 30.0284C18.9876 30.9859 18.6234 31.9931 18.2714 32.9727C17.3882 35.4188 16.475 37.9535 14.802 40.051C12.7272 42.6576 9.94626 44.4286 7.25661 46.1442C6.29531 46.7585 5.30136 47.3894 4.35501 48.0535C3.09929 48.9279 2.02453 49.7525 1.58899 50.887C1.0411 52.3148 1.66647 53.9198 2.43407 54.9381C3.38043 56.1999 4.75402 57.1186 6.0828 58.0074C6.21728 58.0976 6.31635 58.2321 6.36228 58.3876C6.61077 59.2282 6.63069 59.8907 6.43257 60.6744C5.94721 62.5892 4.32125 63.949 3.13415 64.9424C2.79268 65.228 2.92994 65.9086 3.20222 66.42C3.49886 66.9773 4.09601 67.3796 4.72359 67.4455C5.07225 67.482 5.339 67.7732 5.34453 68.1246C5.35007 68.4755 5.09273 68.7748 4.74462 68.8224C4.02295 68.9204 3.14688 69.5297 2.83198 70.1529C2.50989 70.7904 2.52206 71.6078 2.86408 72.2354C3.01737 72.516 3.23875 72.78 3.4734 73.06C3.67706 73.303 3.88791 73.5542 4.07497 73.8403C4.85309 75.0307 5.01745 76.5936 4.50388 77.9191C4.35445 78.3054 4.19673 78.6967 4.0379 79.0918C2.99026 81.699 1.90665 84.3947 2.51985 86.8946C3.11367 89.3152 5.12758 91.5062 8.04524 92.9047C10.1732 93.9247 12.559 94.4764 14.8662 95.0105C15.4362 95.1422 16.0057 95.2739 16.5719 95.4123C17.8104 95.715 18.7767 95.9242 19.629 96.1085C22.6573 96.7632 23.7902 97.0084 27.7865 99.5281C31.4175 101.818 34.1027 105.463 35.7674 110.363C36.7614 113.289 37.3779 116.685 37.55 120.185L37.5506 120.219V124.412Z" fill="#7C8C9C"/>
<path id="path20" d="M33.7077 51.1194C32.1193 51.1194 30.531 50.7874 29.0561 50.1344C26.1877 48.8559 23.7576 46.3379 22.3873 43.2276C22.2335 42.879 22.3923 42.4694 22.7426 42.3145C23.0935 42.1595 23.5025 42.32 23.6569 42.6686C24.8894 45.469 27.0632 47.7269 29.6206 48.867C32.1575 49.996 35.0763 50.0181 37.6292 48.9334C37.9818 48.784 38.3885 48.95 38.5385 49.3042C38.6885 49.6529 38.5247 50.0624 38.1716 50.2119C36.7504 50.8151 35.229 51.1194 33.7077 51.1194Z" fill="#7C8C9C"/>
<path id="path28" d="M101.412 52.016C100.824 53.1118 99.9957 53.9807 99.0173 54.5286C97.9713 55.1208 96.7393 55.331 95.6375 55.1041L95.56 55.0986C95.498 53.87 94.9496 52.6525 94.0176 51.7227C94.9396 50.7155 95.3718 49.271 95.0719 47.9318C95.0082 47.6495 94.7204 47.4613 94.4293 47.5167C94.1377 47.572 93.9534 47.8432 94.017 48.131C94.3126 49.4481 93.6745 50.9036 92.4996 51.5899C91.3246 52.2761 89.6804 52.1489 88.5902 51.2911C88.3555 51.1084 88.0163 51.1361 87.8325 51.363C87.6482 51.5844 87.6886 51.9109 87.9233 52.099C88.2946 52.3924 88.7147 52.6192 89.1602 52.7797C90.438 53.2391 91.9251 53.1616 93.0729 52.4919L93.2124 52.4034C94.1731 53.3332 94.6529 54.7001 94.4354 55.9066C94.2063 57.18 93.1841 58.2642 91.95 58.5459C90.6804 58.8353 89.2426 58.2481 88.6057 57.1795C88.4546 56.9266 88.1242 56.8347 87.8668 56.9747C87.6095 57.1142 87.5237 57.433 87.6748 57.6859C88.1446 58.474 88.9277 59.0716 89.8193 59.3948C90.2189 59.5393 90.6406 59.6273 91.0651 59.6538C91.3517 61.0258 91.0773 62.4763 90.3108 63.6352C89.5426 64.7968 88.3002 65.6358 86.9022 65.9363C85.7439 66.1854 84.414 66.0824 83.0559 65.6391C81.98 65.2883 80.4769 64.5871 79.4282 63.2422C78.5411 62.1038 78.1841 60.6567 78.4824 59.4402C79.3679 59.5526 80.2368 59.474 81.0116 59.1884C82.8982 58.4938 84.0371 56.5624 83.6055 54.7942C83.5368 54.512 83.2452 54.3294 82.9557 54.3902C82.6657 54.4456 82.4864 54.7278 82.5556 55.01C82.8617 56.2641 81.9872 57.6997 80.6064 58.2089C79.3369 58.676 77.7286 58.4457 76.303 57.5935C74.9903 56.8081 73.9986 55.6078 73.5824 54.3072C73.1435 52.9292 73.3643 51.4128 74.1585 50.3447C74.3306 50.1122 74.2731 49.7857 74.0295 49.6141C73.7866 49.437 73.4496 49.4869 73.2774 49.7193C73.0522 50.0182 72.8662 50.3502 72.7163 50.7044L72.667 50.7819C71.8872 52.3813 69.9934 53.4604 68.0609 53.4051C66.1753 53.3553 64.3048 52.3149 63.1791 50.6878C62.1193 49.1548 61.7352 47.1072 62.1508 45.2034C62.168 45.1259 62.1647 45.0484 62.1475 44.9764L62.1785 44.8824C62.2504 44.6001 62.0728 44.3124 61.785 44.2349C61.4961 44.1629 61.2028 44.3234 61.1309 44.6001C60.8719 45.6018 60.0926 46.515 59.0456 47.0352C58.0782 47.5222 56.8927 47.7048 55.6176 47.5665C53.6391 47.3562 51.8018 46.3711 50.7021 44.9267C49.5327 43.3992 49.2333 41.3681 49.9401 39.7632L49.9561 39.7134C50.2959 39.9348 50.6639 40.1284 51.0591 40.2723L51.0779 40.2779C52.2152 40.6874 53.5534 40.7538 54.9474 40.4716C55.238 40.4163 55.419 40.1395 55.3514 39.8573C55.2845 39.575 54.9945 39.3924 54.7039 39.4478C53.5069 39.6857 52.3746 39.6359 51.4288 39.2983C50.3756 38.922 49.5261 38.1527 49.1808 37.2507C48.8188 36.3043 49.0623 35.1974 49.7596 34.6108C49.9821 34.4282 50.002 34.0961 49.8034 33.8748C49.6058 33.6534 49.2643 33.6257 49.0418 33.8138C48.0075 34.6827 47.6489 36.2324 48.1702 37.5938C48.3578 38.0808 48.6572 38.5401 49.0335 38.9441C48.9173 38.9441 48.8028 38.9829 48.7092 39.0604C47.7756 39.8352 46.2819 39.6248 45.2869 39.2097C43.17 38.3298 41.5789 36.2545 41.3282 34.0519C41.0841 31.9101 42.108 29.6908 43.8834 28.4567C44.4628 28.8828 45.1042 29.2315 45.7822 29.475C46.8973 29.879 48.1049 30.0174 49.271 29.8403C49.5637 29.796 49.758 29.5248 49.7037 29.2426C49.6501 28.9548 49.3684 28.7611 49.075 28.8054C47.0844 29.1097 44.8602 28.2685 43.5397 26.7134C42.2253 25.1583 41.787 22.928 42.4229 21.0297C43.0549 19.137 44.6958 17.6262 46.7042 17.0783C48.712 16.5359 50.996 16.9898 52.664 18.2682C52.9009 18.4508 53.2396 18.412 53.4205 18.1907C53.4858 18.1077 53.5202 18.0136 53.5285 17.9195C53.6779 17.7867 53.7448 17.5819 53.6806 17.3827C53.1206 15.6117 53.5439 13.5751 54.7853 12.0642C55.9602 10.6309 57.8114 9.69006 59.8646 9.48529C61.7535 9.2916 63.8316 9.72329 65.7165 10.6973C66.9712 11.3448 67.9391 12.1251 68.5943 13.0161C69.2419 13.8961 69.5745 14.9034 69.5418 15.8442C69.1965 15.8497 68.8528 15.894 68.5169 15.9715C66.954 16.3422 65.6485 17.4823 65.11 18.9489C65.0109 19.22 65.1581 19.5189 65.4393 19.6241H65.4415C65.7221 19.7292 66.0287 19.5909 66.1277 19.3197C66.5434 18.1907 67.5916 17.272 68.798 16.9897C70.0039 16.7019 71.3986 17.0395 72.3499 17.8475C73.3018 18.6555 73.8342 19.9561 73.7069 21.1571C73.6765 21.4448 73.8923 21.7105 74.1889 21.7437C74.485 21.7824 74.7501 21.5776 74.7805 21.2898C74.946 19.7347 74.2825 18.1187 73.0494 17.0727C72.8242 16.879 72.5812 16.7075 72.3261 16.5581C73.6145 15.1856 75.5155 14.2171 77.6191 13.8905C79.664 13.5696 81.9646 13.8131 84.2729 14.5934C86.3975 15.3129 88.1723 16.3478 89.552 17.6705C91.0828 19.1371 92.0828 20.9578 92.3667 22.8007C92.66 24.6989 92.1592 26.6138 91.0269 27.9752L90.9959 27.9808C89.4037 26.398 86.8269 25.8833 84.7865 26.7688C84.5169 26.885 84.4018 27.1949 84.5297 27.4605C84.657 27.7262 84.9791 27.8424 85.248 27.7262C86.9061 27.0067 89.0954 27.4716 90.3418 28.8109C91.5881 30.1447 91.8421 32.2975 90.9334 33.8194C90.7856 34.0685 90.8752 34.3894 91.1343 34.5389L91.225 34.5776C91.4658 34.6662 91.7397 34.5776 91.8709 34.3618C92.8543 32.7126 92.768 30.5597 91.7392 28.9105C93.8388 28.5729 96.005 28.9492 97.7648 29.9786C99.7555 31.1464 101.174 33.183 101.469 35.2915C101.776 37.4941 100.86 39.7355 99.1351 41.0029C97.502 39.968 95.5561 39.4201 93.6136 39.5197C93.3164 39.5308 93.0939 39.7798 93.1172 40.0676C93.1399 40.3553 93.4 40.5767 93.6972 40.5656C96.4925 40.4217 99.4129 41.8773 100.964 44.1795C102.515 46.4818 102.695 49.6308 101.412 52.016ZM77.479 65.5191C77.0535 66.1882 76.6157 66.586 76.142 66.7355C75.5697 66.9153 74.8791 66.6879 74.5691 66.218C74.3201 65.8406 74.2813 65.3325 74.2404 64.794L74.2271 64.6253C73.92 60.8166 72.0455 57.0572 69.1633 54.3792C70.3343 54.2076 71.4235 53.7095 72.284 52.979C72.2957 53.5214 72.3837 54.0637 72.5519 54.595C73.0467 56.1423 74.2133 57.5597 75.7535 58.4806C76.1685 58.729 76.5985 58.9327 77.0346 59.0905C77.1636 59.1375 77.2931 59.1763 77.4226 59.2144C77.064 60.7297 77.4796 62.4403 78.5527 63.8322C78.2627 64.1936 78.0319 64.5832 77.8111 64.964C77.7026 65.1505 77.5942 65.337 77.479 65.5191ZM101.864 43.6206C101.361 42.8734 100.741 42.2149 100.042 41.6504C101.904 40.1395 102.881 37.638 102.539 35.1808C102.201 32.7513 100.578 30.4214 98.3055 29.0876C96.5888 28.0859 94.5362 27.6266 92.4901 27.7705C93.3618 26.2984 93.7127 24.4776 93.4343 22.6679C93.115 20.6036 92.002 18.567 90.3008 16.9344C88.8021 15.501 86.8856 14.3776 84.6055 13.6083C82.1267 12.7671 79.6418 12.507 77.4198 12.8557C74.9582 13.2431 72.7378 14.4218 71.2912 16.0987C71.0709 16.0268 70.8468 15.9715 70.6193 15.9272C70.6658 14.7539 70.2613 13.5031 69.4677 12.424C68.7117 11.3946 67.6137 10.5036 66.2047 9.77309C64.1282 8.70498 61.8276 8.229 59.7263 8.4393C57.393 8.67727 55.2817 9.75645 53.9336 11.4001C52.6568 12.9552 52.1222 14.9974 52.4581 16.8846C50.6363 15.8442 48.3949 15.5287 46.3887 16.0711C44.0477 16.7075 42.134 18.4729 41.3946 20.6811C40.6486 22.9169 41.1655 25.5401 42.7129 27.3664C42.8202 27.4882 42.9331 27.6155 43.0493 27.7317C41.0919 29.1983 39.9789 31.7164 40.2551 34.1349C40.5484 36.7194 42.4085 39.1378 44.8828 40.1672C44.9692 40.206 45.0572 40.2391 45.1474 40.2723C46.1967 40.6542 47.5127 40.8036 48.6207 40.3443C48.2421 42.071 48.6771 44.0135 49.8404 45.5354C50.7259 46.6976 52.0143 47.6052 53.4787 48.1365C54.1328 48.369 54.8224 48.535 55.5263 48.6069C57.0123 48.7674 58.4069 48.5461 59.5608 47.9705C60.0694 47.7159 60.5221 47.3894 60.9078 47.0186C60.9593 48.5405 61.4308 50.0182 62.287 51.2523C63.178 52.5418 64.4708 53.5213 65.903 54.036C66.4686 54.2408 67.0558 54.3736 67.6486 54.4234L67.7443 54.5286C70.8197 57.0406 72.8408 60.8349 73.1513 64.6801L73.164 64.8444C73.2105 65.4609 73.2636 66.1599 73.6637 66.7659C73.9438 67.1904 74.3743 67.5069 74.8608 67.6835C75.3799 67.8711 75.9638 67.9004 76.4989 67.7316C77.2184 67.5053 77.841 66.9663 78.4016 66.0846C78.5245 65.8915 78.6401 65.6934 78.7552 65.4947C78.9296 65.1936 79.0989 64.9058 79.2893 64.6441C80.1244 65.4355 81.1809 66.0736 82.4062 66.5168C82.5147 66.5561 82.6242 66.5944 82.7355 66.6303C84.2817 67.1351 85.812 67.2485 87.1612 66.9585C88.8276 66.6004 90.308 65.601 91.2239 64.2163C92.1171 62.8659 92.4486 61.1829 92.1431 59.5802L92.2223 59.5653C93.8709 59.189 95.182 57.8126 95.4936 56.1368C96.8395 56.398 98.3244 56.1463 99.5773 55.4417C100.726 54.7887 101.693 53.7814 102.372 52.5196C103.851 49.7691 103.652 46.277 101.864 43.6206Z" fill="white"/>
<path id="path30" d="M66.6792 27.5048C67.1894 28.7223 66.9111 30.2277 66.0023 31.163C65.8003 31.3677 65.8147 31.6997 66.0344 31.9045C66.0903 31.9543 66.1545 31.9931 66.222 32.0152C66.4191 32.0871 66.6471 32.0429 66.7971 31.8879C67.9985 30.6538 68.3522 28.7389 67.6781 27.1285C67.0035 25.518 65.3587 24.3503 63.585 24.223C61.8118 24.0957 60.0613 25.0199 59.2306 26.5197C59.0906 26.7743 59.1913 27.0897 59.4548 27.2336C59.7182 27.372 60.0447 27.2834 60.1842 27.0344C60.8134 25.8998 62.1903 25.1694 63.5324 25.269C64.875 25.3631 66.1689 26.2872 66.6792 27.5048Z" fill="white"/>
<path id="path32" d="M84.1003 39.6969C83.8087 39.6305 83.5209 39.802 83.4567 40.0843C83.393 40.361 83.5768 40.6488 83.8684 40.7152C85.6488 41.1413 87.1917 42.547 87.7086 44.2183C88.2305 45.9063 87.6821 47.871 86.3743 49C85.0317 50.1566 82.9685 50.4112 81.3553 49.6253C81.0858 49.4925 80.7643 49.5977 80.6359 49.8578C80.5075 50.1123 80.6209 50.4278 80.8904 50.5606C81.062 50.6436 81.2374 50.7156 81.4162 50.782C83.3216 51.4738 85.5868 51.0974 87.1032 49.7858C88.7314 48.3857 89.3899 46.0336 88.7413 43.9416C88.1054 41.8829 86.283 40.2171 84.1003 39.6969Z" fill="white"/>
<path id="path34" d="M80.5337 45.0872C79.273 45.6517 77.7157 45.5964 76.4693 44.9433C75.2225 44.2848 74.3077 43.0395 74.0813 41.6947C73.8849 40.5215 74.213 39.2873 74.9436 38.3631C75.4854 38.8612 76.1262 39.2541 76.823 39.5087C77.2264 39.6526 77.6476 39.7522 78.0759 39.7965C79.61 39.9625 81.5177 39.2763 82.0318 37.6769C82.1198 37.4057 81.961 37.1068 81.6754 37.0183C81.3904 36.9242 81.0882 37.0681 81.0002 37.3448C80.666 38.3853 79.2979 38.8778 78.1684 38.756C76.8136 38.6122 75.554 37.7986 74.8821 36.6364C74.2208 35.4908 74.171 34.0021 74.7565 32.851C74.8865 32.5909 74.7742 32.2754 74.5063 32.1426C74.2379 32.0098 73.9153 32.1094 73.7852 32.3695C73.0381 33.8416 73.099 35.6679 73.9435 37.129C74.0271 37.2728 74.1189 37.4112 74.2163 37.5495C73.3978 38.5014 72.944 39.7522 72.949 41.014C71.6241 42.1375 69.4796 42.2703 67.9787 41.2907C66.4269 40.278 65.7235 38.1805 66.3776 36.5202C66.4833 36.2545 66.3428 35.9502 66.0638 35.8395C65.7855 35.7288 65.4739 35.8561 65.3682 36.1273C65.1048 36.7969 65.0168 37.5219 65.081 38.2413C64.4617 38.9442 63.564 39.4367 62.6155 39.5972C61.663 39.7577 60.6248 39.5806 59.7664 39.1213C59.4454 38.9497 58.8848 38.5845 58.7359 38.0587C58.6562 37.7765 58.3591 37.6049 58.0718 37.6769C57.7846 37.7488 57.6164 38.0311 57.6961 38.3133C57.9401 39.1711 58.6823 39.7245 59.2611 40.0344C59.5013 40.1617 59.7498 40.2724 60.0044 40.3665C60.9059 40.693 61.8833 40.7871 62.8257 40.6266C63.7638 40.4717 64.6338 40.0677 65.3455 39.4755C65.7124 40.5491 66.4197 41.5176 67.3921 42.154C67.7136 42.3643 68.0578 42.5304 68.417 42.6632C69.9494 43.2166 71.742 43.0506 73.0984 42.2205C73.477 43.7424 74.5495 45.1094 75.9735 45.8565C76.1993 45.9782 76.4328 46.0778 76.6719 46.1664C78.0732 46.6755 79.6748 46.6368 81.008 46.0391C81.2758 45.9173 81.3865 45.6074 81.2559 45.3418C81.1248 45.0817 80.8015 44.9654 80.5337 45.0872Z" fill="white"/>
<path id="path36" d="M73.171 26.9515C73.3519 27.1894 73.6912 27.2393 73.928 27.0677C75.5806 25.8834 78.1894 26.0438 79.7434 27.4219C81.298 28.7999 81.6981 31.3125 80.635 33.0225C80.4828 33.266 80.5669 33.587 80.8232 33.742L80.9222 33.7863C81.1591 33.8748 81.4297 33.7918 81.5631 33.576C82.8991 31.4342 82.4154 28.3904 80.4612 26.6581C78.5071 24.9259 75.3492 24.7323 73.2717 26.221C73.0354 26.3925 72.99 26.719 73.171 26.9515Z" fill="white"/>
<path id="path38" d="M29.6915 9.29169L29.1906 8.58332C29.4745 8.38408 29.7656 8.18486 30.0556 7.98563L30.5388 8.70508C30.2554 8.89878 29.9698 9.09246 29.6915 9.29169ZM28.0389 10.5203L27.5054 9.8396C27.7832 9.61823 28.0644 9.40793 28.3411 9.20316L28.858 9.89495C28.5874 10.0997 28.3118 10.31 28.0389 10.5203ZM26.4462 11.8264L25.8806 11.1678C26.1473 10.9409 26.418 10.714 26.6853 10.4926L27.2348 11.1678C26.973 11.3781 26.7074 11.605 26.4462 11.8264ZM24.9154 13.2044L24.3199 12.5735C24.5728 12.3411 24.8324 12.0976 25.0925 11.8651L25.6725 12.5071C25.4179 12.7395 25.1628 12.972 24.9154 13.2044ZM23.4499 14.6544L22.8262 14.0511C23.0692 13.8021 23.3177 13.5531 23.565 13.304L24.1744 13.9239C23.932 14.1618 23.6879 14.4109 23.4499 14.6544ZM22.0525 16.1708L21.4017 15.5952C21.6319 15.3351 21.8688 15.075 22.1051 14.8149L22.7421 15.407C22.5102 15.6561 22.2778 15.9106 22.0525 16.1708ZM20.7249 17.748L20.0491 17.2002C20.2677 16.929 20.4924 16.6578 20.7166 16.3921L21.3796 16.9511C21.1599 17.2112 20.9396 17.4768 20.7249 17.748ZM19.4708 19.3806L18.7713 18.8715C18.976 18.5892 19.188 18.307 19.4011 18.0303L20.089 18.5561C19.8798 18.8272 19.6723 19.1039 19.4708 19.3806ZM18.2926 21.0741L17.5703 20.5926C17.7635 20.2993 17.9622 20.0115 18.1608 19.7238L18.872 20.2218C18.6772 20.4986 18.4818 20.7864 18.2926 21.0741ZM17.1929 22.8119L16.4491 22.3691C16.6284 22.0703 16.8133 21.7714 16.9998 21.4726L17.7331 21.9375C17.5499 22.2252 17.3678 22.5241 17.1929 22.8119ZM16.1735 24.605L15.4103 24.1954C15.5752 23.8855 15.7463 23.5811 15.9195 23.2768L16.6727 23.7029C16.5028 24.0018 16.3351 24.3061 16.1735 24.605ZM15.2377 26.4424L14.4562 26.066C14.6073 25.7505 14.7645 25.4351 14.9222 25.1252L15.6948 25.5181C15.5398 25.8225 15.386 26.1324 15.2377 26.4424ZM14.3882 28.3184L13.5901 27.9809C13.7257 27.6599 13.8674 27.3389 14.0118 27.0179L14.8016 27.3721C14.6604 27.6876 14.521 28.003 14.3882 28.3184ZM13.6272 30.2333L12.8142 29.9289C12.9349 29.608 13.061 29.2759 13.1905 28.9494L13.9963 29.2703C13.8696 29.5913 13.7456 29.9123 13.6272 30.2333ZM12.9581 32.1813L12.1318 31.9157C12.2375 31.5836 12.3482 31.2516 12.4611 30.9195L13.2813 31.2018C13.1706 31.5228 13.0616 31.8548 12.9581 32.1813Z" fill="#7C8C9C"/>
<path id="path40" d="M100.509 74.5001L99.9038 73.8791C100.151 73.6384 100.396 73.396 100.64 73.1525L101.253 73.7657C101.006 74.012 100.758 74.2565 100.509 74.5001ZM98.9989 75.9434L98.4057 75.3108C98.6575 75.0745 98.9087 74.8371 99.1583 74.5986L99.7571 75.2256C99.5059 75.4658 99.253 75.7049 98.9989 75.9434ZM97.4671 77.3596L96.8826 76.7199C97.1378 76.4863 97.3923 76.2528 97.6464 76.0176L98.2352 76.654C97.9795 76.8903 97.7238 77.1256 97.4671 77.3596ZM95.923 78.7593L95.343 78.115C95.6003 77.8832 95.8577 77.6513 96.1145 77.4188L96.6961 78.0614C96.4388 78.2944 96.1814 78.5268 95.923 78.7593ZM94.3756 80.1506L93.7962 79.5058L94.5699 78.8102L95.1493 79.4554L94.3756 80.1506ZM92.8327 81.543L92.2494 80.901C92.5067 80.6674 92.764 80.4344 93.0219 80.202L93.603 80.8456C93.3457 81.0775 93.0889 81.31 92.8327 81.543ZM91.3024 82.9459L90.7125 82.3106C90.9671 82.0737 91.2227 81.8379 91.4795 81.6033L92.0651 82.2425C91.8099 82.476 91.5559 82.7107 91.3024 82.9459ZM89.7944 84.3682L89.1939 83.7428L89.3765 83.568C89.5675 83.3853 89.7589 83.2038 89.9504 83.0234L90.5454 83.6543C90.355 83.8336 90.1652 84.0135 89.9759 84.1945L89.7944 84.3682ZM88.3173 85.8198L87.7024 85.2088C87.9481 84.9614 88.1955 84.7152 88.444 84.4712L89.0517 85.0899C88.8054 85.3317 88.5608 85.5746 88.3173 85.8198ZM86.8811 87.3075L86.2486 86.7148C86.4871 86.4602 86.7278 86.2072 86.9708 85.956L87.5939 86.5587C87.3543 86.8066 87.1169 87.0562 86.8811 87.3075ZM85.4954 88.8388L84.8423 88.2687C85.072 88.0053 85.3044 87.7447 85.5391 87.4851L86.1816 88.0673C85.9503 88.3224 85.7217 88.5798 85.4954 88.8388ZM84.171 90.4199L83.4947 89.877C83.7139 89.6042 83.9358 89.3341 84.1605 89.0657L84.8246 89.623C84.6038 89.8864 84.3857 90.152 84.171 90.4199ZM82.9186 92.0553L82.218 91.5455C82.4194 91.2688 82.6308 90.9855 82.8467 90.7033L83.5351 91.2307C83.3232 91.5068 83.1162 91.7841 82.9186 92.0553ZM81.7531 93.7498L81.0253 93.2784C81.2141 92.9878 81.4105 92.6934 81.6098 92.404L82.3242 92.8954C82.1294 93.1782 81.9374 93.4659 81.7531 93.7498ZM80.6866 95.5059L79.9323 95.0787C80.1039 94.7765 80.2832 94.4705 80.4658 94.1699L81.2063 94.6204C81.0287 94.9132 80.8538 95.2115 80.6866 95.5059ZM79.7353 97.3228L78.9533 96.9476C79.1039 96.6343 79.2638 96.3172 79.427 96.0045L80.1952 96.4069C80.0364 96.7107 79.8814 97.019 79.7353 97.3228ZM78.9151 99.2005L78.1088 98.8835C78.2361 98.5597 78.3722 98.2315 78.5133 97.9078L79.3081 98.2547C79.1708 98.5685 79.0391 98.8873 78.9151 99.2005ZM78.2388 101.133L77.4098 100.878C77.5127 100.543 77.624 100.205 77.7402 99.8735L78.5582 100.16C78.4458 100.481 78.3385 100.808 78.2388 101.133ZM77.7181 103.109L76.8713 102.923C76.9466 102.58 77.0302 102.234 77.1198 101.895L77.9583 102.116C77.8714 102.444 77.7906 102.778 77.7181 103.109ZM77.3678 105.121L76.5077 105.01C76.5526 104.663 76.6057 104.31 76.6666 103.962L77.5205 104.112C77.4618 104.446 77.4104 104.786 77.3678 105.121ZM77.2039 107.152L76.3378 107.124C76.3489 106.775 76.3688 106.418 76.3976 106.065L77.2615 106.134C77.2344 106.474 77.215 106.816 77.2039 107.152ZM76.3777 109.249C76.3528 108.899 76.3367 108.541 76.3301 108.187L77.1973 108.17C77.2034 108.51 77.2183 108.852 77.2427 109.187L76.3777 109.249ZM76.6444 111.359C76.5808 111.011 76.526 110.657 76.4823 110.307L77.3423 110.199C77.3844 110.533 77.4364 110.871 77.4973 111.203L76.6444 111.359Z" fill="#7C8C9C"/>
<path id="path42" d="M18.3356 100.539C18.0041 100.436 17.6726 100.336 17.3428 100.236L17.594 99.4064C17.925 99.5066 18.2581 99.6073 18.5913 99.7102L18.3356 100.539ZM20.3025 101.174C19.9771 101.062 19.6506 100.954 19.3229 100.849L19.5886 100.023C19.9212 100.131 20.2538 100.241 20.5842 100.354L20.3025 101.174ZM22.2262 101.895C21.9246 101.771 21.603 101.644 21.2715 101.52L21.5748 100.709C21.9157 100.836 22.2461 100.965 22.5572 101.094L22.2262 101.895ZM24.0769 102.755C23.7863 102.602 23.4786 102.451 23.1631 102.305L23.5273 101.518C23.856 101.67 24.1765 101.828 24.4803 101.988L24.0769 102.755ZM25.808 103.803C25.5401 103.616 25.2551 103.43 24.9607 103.253L25.4089 102.511C25.7194 102.698 26.021 102.894 26.3055 103.093L25.808 103.803ZM27.3614 105.078C27.1246 104.849 26.8722 104.625 26.6115 104.411L27.1605 103.74C27.44 103.969 27.7106 104.21 27.9641 104.455L27.3614 105.078ZM28.6836 106.59C28.4816 106.318 28.2685 106.054 28.0521 105.806L28.7051 105.236C28.9365 105.501 29.1634 105.782 29.3792 106.072L28.6836 106.59ZM29.7771 108.29C29.6106 107.99 29.4357 107.697 29.258 107.42L29.9874 106.952C30.175 107.245 30.3593 107.553 30.5348 107.869L29.7771 108.29ZM30.6637 110.119C30.5303 109.804 30.3892 109.491 30.2442 109.192L31.0251 108.814C31.1762 109.127 31.3234 109.453 31.4623 109.782L30.6637 110.119ZM31.3782 112.035C31.2686 111.704 31.1552 111.378 31.04 111.069L31.853 110.767C31.9715 111.086 32.0888 111.422 32.2017 111.764L31.3782 112.035ZM31.9648 114.007C31.8696 113.655 31.7778 113.331 31.6848 113.016L32.5155 112.769C32.6112 113.091 32.7048 113.422 32.8016 113.781L31.9648 114.007ZM32.4734 116.012C32.3926 115.677 32.3102 115.341 32.2255 115.006L33.0661 114.794C33.1514 115.132 33.2344 115.47 33.3163 115.809L32.4734 116.012Z" fill="#7C8C9C"/>
</g>
</svg>
